<?xml version="1.0" standalone="no"?>
<svg xmlns="http://www.w3.org/2000/svg" width="540" height="735.609375"><g transform="translate(60,20)"><g class="x axis" transform="translate(0,600)" fill="none" font-size="10" font-family="sans-serif" text-anchor="middle"><path class="domain" stroke="#000" d="M0.5,6V0.5H480.5V6"/><g class="tick" opacity="1" transform="translate(43.27868852459017,0)"><line stroke="#000" y2="6"/><text fill="#000" y="9" dy="-0.5em" dx="-.8em" style="text-anchor: end;" transform="rotate(-90)">SRR14325452</text></g><g class="tick" opacity="1" transform="translate(121.96721311475409,0)"><line stroke="#000" y2="6"/><text fill="#000" y="9" dy="-0.5em" dx="-.8em" style="text-anchor: end;" transform="rotate(-90)">SRR14325454</text></g><g class="tick" opacity="1" transform="translate(200.655737704918,0)"><line stroke="#000" y2="6"/><text fill="#000" y="9" dy="-0.5em" dx="-.8em" style="text-anchor: end;" transform="rotate(-90)">SRR14325456</text></g><g class="tick" opacity="1" transform="translate(279.34426229508193,0)"><line stroke="#000" y2="6"/><text fill="#000" y="9" dy="-0.5em" dx="-.8em" style="text-anchor: end;" transform="rotate(-90)">SRR14325455</text></g><g class="tick" opacity="1" transform="translate(358.03278688524586,0)"><line stroke="#000" y2="6"/><text fill="#000" y="9" dy="-0.5em" dx="-.8em" style="text-anchor: end;" transform="rotate(-90)">SRR14325453</text></g><g class="tick" opacity="1" transform="translate(436.7213114754098,0)"><line stroke="#000" y2="6"/><text fill="#000" y="9" dy="-0.5em" dx="-.8em" style="text-anchor: end;" transform="rotate(-90)">SRR14325457</text></g></g><g class="y axis" fill="none" font-size="10" font-family="sans-serif" text-anchor="end"><path class="domain" stroke="#000" d="M-6,600.5H0.5V0.5H-6"/><g class="tick" opacity="1" transform="translate(0,600.5)"><line stroke="#000" x2="-6"/><text fill="#000" x="-9" dy="0.32em">0%</text></g><g class="tick" opacity="1" transform="translate(0,540.5)"><line stroke="#000" x2="-6"/><text fill="#000" x="-9" dy="0.32em">10%</text></g><g class="tick" opacity="1" transform="translate(0,480.5)"><line stroke="#000" x2="-6"/><text fill="#000" x="-9" dy="0.32em">20%</text></g><g class="tick" opacity="1" transform="translate(0,420.5)"><line stroke="#000" x2="-6"/><text fill="#000" x="-9" dy="0.32em">30%</text></g><g class="tick" opacity="1" transform="translate(0,360.5)"><line stroke="#000" x2="-6"/><text fill="#000" x="-9" dy="0.32em">40%</text></g><g class="tick" opacity="1" transform="translate(0,300.5)"><line stroke="#000" x2="-6"/><text fill="#000" x="-9" dy="0.32em">50%</text></g><g class="tick" opacity="1" transform="translate(0,240.5)"><line stroke="#000" x2="-6"/><text fill="#000" x="-9" dy="0.32em">60%</text></g><g class="tick" opacity="1" transform="translate(0,180.5)"><line stroke="#000" x2="-6"/><text fill="#000" x="-9" dy="0.32em">70%</text></g><g class="tick" opacity="1" transform="translate(0,120.5)"><line stroke="#000" x2="-6"/><text fill="#000" x="-9" dy="0.32em">80%</text></g><g class="tick" opacity="1" transform="translate(0,60.5)"><line stroke="#000" x2="-6"/><text fill="#000" x="-9" dy="0.32em">90%</text></g><g class="tick" opacity="1" transform="translate(0,0.5)"><line stroke="#000" x2="-6"/><text fill="#000" x="-9" dy="0.32em">100%</text></g></g><text id="y-label" text-anchor="middle" style="font: 12px sans-serif;" transform="translate(-30,300)rotate(-90)">Relative Frequency</text><text id="x-label" text-anchor="middle" style="font: 12px sans-serif;" transform="translate(240,695.609375)">Sample</text><g class="layer" style="fill: rgb(127, 201, 127);"><rect x="7.868852459016409" y="0" height="515.6850588964662" width="70.81967213114753"/><rect x="322.6229508196721" y="0" height="545.0520340586565" width="70.81967213114753"/><rect x="86.55737704918033" y="0" height="518.0008845643521" width="70.81967213114753"/><rect x="243.93442622950818" y="0" height="534.3105817682089" width="70.81967213114753"/><rect x="165.24590163934425" y="0" height="532.0716458262926" width="70.81967213114753"/><rect x="401.311475409836" y="0" height="590.1993355481727" width="70.81967213114753"/></g><g class="layer" style="fill: rgb(190, 174, 212);"><rect x="7.868852459016409" y="515.6850588964662" height="29.01425914445133" width="70.81967213114753"/><rect x="322.6229508196721" y="545.0520340586565" height="43.9356669820246" width="70.81967213114753"/><rect x="86.55737704918033" y="518.0008845643521" height="36.09022556390971" width="70.81967213114753"/><rect x="243.93442622950818" y="534.3105817682089" height="0" width="70.81967213114753"/><rect x="165.24590163934425" y="532.0716458262926" height="0" width="70.81967213114753"/><rect x="401.311475409836" y="590.1993355481727" height="0" width="70.81967213114753"/></g><g class="layer" style="fill: rgb(253, 192, 134);"><rect x="7.868852459016409" y="544.6993180409175" height="7.315561066336045" width="70.81967213114753"/><rect x="322.6229508196721" y="588.9877010406811" height="3.7464522232734225" width="70.81967213114753"/><rect x="86.55737704918033" y="554.0911101282618" height="12.737726669615313" width="70.81967213114753"/><rect x="243.93442622950818" y="534.3105817682089" height="0" width="70.81967213114753"/><rect x="165.24590163934425" y="532.0716458262926" height="57.587022642784746" width="70.81967213114753"/><rect x="401.311475409836" y="590.1993355481727" height="0" width="70.81967213114753"/></g><g class="layer" style="fill: rgb(56, 108, 176);"><rect x="7.868852459016409" y="576.3174209547427" height="0" width="70.81967213114753"/><rect x="322.6229508196721" y="595.4588457899716" height="0" width="70.81967213114753"/><rect x="86.55737704918033" y="566.8288367978771" height="15.656789031402013" width="70.81967213114753"/><rect x="243.93442622950818" y="534.3105817682089" height="15.941365093907507" width="70.81967213114753"/><rect x="165.24590163934425" y="589.6586684690774" height="9.935789117945205" width="70.81967213114753"/><rect x="401.311475409836" y="590.1993355481727" height="0" width="70.81967213114753"/></g><g class="layer" style="fill: rgb(102, 102, 102);"><rect x="7.868852459016409" y="582.7650340979541" height="10.043397396156251" width="70.81967213114753"/><rect x="322.6229508196721" y="599.4323557237465" height="0" width="70.81967213114753"/><rect x="86.55737704918033" y="600" height="0" width="70.81967213114753"/><rect x="243.93442622950818" y="563.1699496106276" height="0" width="70.81967213114753"/><rect x="165.24590163934425" y="599.5944575870226" height="0" width="70.81967213114753"/><rect x="401.311475409836" y="596.1794019933554" height="0" width="70.81967213114753"/></g><g class="layer" style="fill: rgb(127, 201, 127);"><rect x="7.868852459016409" y="592.8084314941103" height="0" width="70.81967213114753"/><rect x="322.6229508196721" y="599.4323557237465" height="0" width="70.81967213114753"/><rect x="86.55737704918033" y="600" height="0" width="70.81967213114753"/><rect x="243.93442622950818" y="563.1699496106276" height="20.613834173156192" width="70.81967213114753"/><rect x="165.24590163934425" y="599.5944575870226" height="0" width="70.81967213114753"/><rect x="401.311475409836" y="596.1794019933554" height="0" width="70.81967213114753"/></g><g class="layer" style="fill: rgb(240, 2, 127);"><rect x="7.868852459016409" y="576.3174209547427" height="2.1078735275883673" width="70.81967213114753"/><rect x="322.6229508196721" y="595.4588457899716" height="0" width="70.81967213114753"/><rect x="86.55737704918033" y="582.4856258292791" height="17.514374170720885" width="70.81967213114753"/><rect x="243.93442622950818" y="550.2519468621164" height="12.918002748511185" width="70.81967213114753"/><rect x="165.24590163934425" y="599.5944575870226" height="0" width="70.81967213114753"/><rect x="401.311475409836" y="590.1993355481727" height="0" width="70.81967213114753"/></g><g class="layer" style="fill: rgb(190, 174, 212);"><rect x="7.868852459016409" y="592.8084314941103" height="0" width="70.81967213114753"/><rect x="322.6229508196721" y="599.4323557237465" height="0" width="70.81967213114753"/><rect x="86.55737704918033" y="600" height="0" width="70.81967213114753"/><rect x="243.93442622950818" y="583.7837837837837" height="12.918002748511299" width="70.81967213114753"/><rect x="165.24590163934425" y="599.5944575870226" height="0" width="70.81967213114753"/><rect x="401.311475409836" y="596.1794019933554" height="0" width="70.81967213114753"/></g><g class="layer" style="fill: rgb(191, 91, 23);"><rect x="7.868852459016409" y="578.4252944823311" height="4.339739615622989" width="70.81967213114753"/><rect x="322.6229508196721" y="595.4588457899716" height="3.973509933774835" width="70.81967213114753"/><rect x="86.55737704918033" y="600" height="0" width="70.81967213114753"/><rect x="243.93442622950818" y="563.1699496106276" height="0" width="70.81967213114753"/><rect x="165.24590163934425" y="599.5944575870226" height="0" width="70.81967213114753"/><rect x="401.311475409836" y="590.1993355481727" height="5.980066445182729" width="70.81967213114753"/></g><g class="layer" style="fill: rgb(255, 255, 153);"><rect x="7.868852459016409" y="552.0148791072536" height="24.302541847489124" width="70.81967213114753"/><rect x="322.6229508196721" y="592.7341532639546" height="2.7246925260170656" width="70.81967213114753"/><rect x="86.55737704918033" y="566.8288367978771" height="0" width="70.81967213114753"/><rect x="243.93442622950818" y="534.3105817682089" height="0" width="70.81967213114753"/><rect x="165.24590163934425" y="589.6586684690774" height="0" width="70.81967213114753"/><rect x="401.311475409836" y="590.1993355481727" height="0" width="70.81967213114753"/></g><g class="layer" style="fill: rgb(253, 192, 134);"><rect x="7.868852459016409" y="592.8084314941103" height="5.08369497830131" width="70.81967213114753"/><rect x="322.6229508196721" y="599.4323557237465" height="0" width="70.81967213114753"/><rect x="86.55737704918033" y="600" height="0" width="70.81967213114753"/><rect x="243.93442622950818" y="596.701786532295" height="0" width="70.81967213114753"/><rect x="165.24590163934425" y="599.5944575870226" height="0" width="70.81967213114753"/><rect x="401.311475409836" y="596.1794019933554" height="0" width="70.81967213114753"/></g><g class="layer" style="fill: rgb(255, 255, 153);"><rect x="7.868852459016409" y="597.8921264724116" height="0" width="70.81967213114753"/><rect x="322.6229508196721" y="599.4323557237465" height="0" width="70.81967213114753"/><rect x="86.55737704918033" y="600" height="0" width="70.81967213114753"/><rect x="243.93442622950818" y="596.701786532295" height="0" width="70.81967213114753"/><rect x="165.24590163934425" y="599.5944575870226" height="0" width="70.81967213114753"/><rect x="401.311475409836" y="596.1794019933554" height="3.820598006644559" width="70.81967213114753"/></g><g class="layer" style="fill: rgb(56, 108, 176);"><rect x="7.868852459016409" y="597.8921264724116" height="1.3639181649101602" width="70.81967213114753"/><rect x="322.6229508196721" y="599.4323557237465" height="0" width="70.81967213114753"/><rect x="86.55737704918033" y="600" height="0" width="70.81967213114753"/><rect x="243.93442622950818" y="596.701786532295" height="0" width="70.81967213114753"/><rect x="165.24590163934425" y="599.5944575870226" height="0" width="70.81967213114753"/><rect x="401.311475409836" y="600" height="0" width="70.81967213114753"/></g><g class="layer" style="fill: rgb(240, 2, 127);"><rect x="7.868852459016409" y="599.2560446373218" height="0" width="70.81967213114753"/><rect x="322.6229508196721" y="599.4323557237465" height="0" width="70.81967213114753"/><rect x="86.55737704918033" y="600" height="0" width="70.81967213114753"/><rect x="243.93442622950818" y="596.701786532295" height="2.748511223087462" width="70.81967213114753"/><rect x="165.24590163934425" y="599.5944575870226" height="0" width="70.81967213114753"/><rect x="401.311475409836" y="600" height="0" width="70.81967213114753"/></g><g class="layer" style="fill: rgb(191, 91, 23);"><rect x="7.868852459016409" y="599.2560446373218" height="0.49597024178547144" width="70.81967213114753"/><rect x="322.6229508196721" y="599.4323557237465" height="0" width="70.81967213114753"/><rect x="86.55737704918033" y="600" height="0" width="70.81967213114753"/><rect x="243.93442622950818" y="599.4502977553825" height="0" width="70.81967213114753"/><rect x="165.24590163934425" y="599.5944575870226" height="0" width="70.81967213114753"/><rect x="401.311475409836" y="600" height="0" width="70.81967213114753"/></g><g class="layer" style="fill: rgb(102, 102, 102);"><rect x="7.868852459016409" y="599.7520148791073" height="0" width="70.81967213114753"/><rect x="322.6229508196721" y="599.4323557237465" height="0.340586565752119" width="70.81967213114753"/><rect x="86.55737704918033" y="600" height="0" width="70.81967213114753"/><rect x="243.93442622950818" y="599.4502977553825" height="0" width="70.81967213114753"/><rect x="165.24590163934425" y="599.5944575870226" height="0" width="70.81967213114753"/><rect x="401.311475409836" y="600" height="0" width="70.81967213114753"/></g><g class="layer" style="fill: rgb(255, 255, 153);"><rect x="7.868852459016409" y="599.7520148791073" height="0.24798512089273572" width="70.81967213114753"/><rect x="322.6229508196721" y="600" height="0" width="70.81967213114753"/><rect x="86.55737704918033" y="600" height="0" width="70.81967213114753"/><rect x="243.93442622950818" y="600" height="0" width="70.81967213114753"/><rect x="165.24590163934425" y="600" height="0" width="70.81967213114753"/><rect x="401.311475409836" y="600" height="0" width="70.81967213114753"/></g><g class="layer" style="fill: rgb(253, 192, 134);"><rect x="7.868852459016409" y="599.7520148791073" height="0" width="70.81967213114753"/><rect x="322.6229508196721" y="599.7729422894986" height="0.22705771050141266" width="70.81967213114753"/><rect x="86.55737704918033" y="600" height="0" width="70.81967213114753"/><rect x="243.93442622950818" y="600" height="0" width="70.81967213114753"/><rect x="165.24590163934425" y="600" height="0" width="70.81967213114753"/><rect x="401.311475409836" y="600" height="0" width="70.81967213114753"/></g><g class="layer" style="fill: rgb(190, 174, 212);"><rect x="7.868852459016409" y="599.7520148791073" height="0" width="70.81967213114753"/><rect x="322.6229508196721" y="599.7729422894986" height="0" width="70.81967213114753"/><rect x="86.55737704918033" y="600" height="0" width="70.81967213114753"/><rect x="243.93442622950818" y="599.4502977553825" height="0.5497022446174924" width="70.81967213114753"/><rect x="165.24590163934425" y="600" height="0" width="70.81967213114753"/><rect x="401.311475409836" y="600" height="0" width="70.81967213114753"/></g><g class="layer" style="fill: rgb(127, 201, 127);"><rect x="7.868852459016409" y="599.7520148791073" height="0" width="70.81967213114753"/><rect x="322.6229508196721" y="599.7729422894986" height="0" width="70.81967213114753"/><rect x="86.55737704918033" y="600" height="0" width="70.81967213114753"/><rect x="243.93442622950818" y="599.4502977553825" height="0" width="70.81967213114753"/><rect x="165.24590163934425" y="599.5944575870226" height="0.405542412977411" width="70.81967213114753"/><rect x="401.311475409836" y="600" height="0" width="70.81967213114753"/></g></g></svg>