<?xml version="1.0" standalone="no"?>
<svg xmlns="http://www.w3.org/2000/svg" width="540" height="735.609375"><g transform="translate(60,20)"><g class="x axis" transform="translate(0,600)" fill="none" font-size="10" font-family="sans-serif" text-anchor="middle"><path class="domain" stroke="#000" d="M0.5,6V0.5H480.5V6"/><g class="tick" opacity="1" transform="translate(43.27868852459017,0)"><line stroke="#000" y2="6"/><text fill="#000" y="9" dy="-0.5em" dx="-.8em" style="text-anchor: end;" transform="rotate(-90)">SRR14325749</text></g><g class="tick" opacity="1" transform="translate(121.96721311475409,0)"><line stroke="#000" y2="6"/><text fill="#000" y="9" dy="-0.5em" dx="-.8em" style="text-anchor: end;" transform="rotate(-90)">SRR14325750</text></g><g class="tick" opacity="1" transform="translate(200.655737704918,0)"><line stroke="#000" y2="6"/><text fill="#000" y="9" dy="-0.5em" dx="-.8em" style="text-anchor: end;" transform="rotate(-90)">SRR14325752</text></g><g class="tick" opacity="1" transform="translate(279.34426229508193,0)"><line stroke="#000" y2="6"/><text fill="#000" y="9" dy="-0.5em" dx="-.8em" style="text-anchor: end;" transform="rotate(-90)">SRR14325751</text></g><g class="tick" opacity="1" transform="translate(358.03278688524586,0)"><line stroke="#000" y2="6"/><text fill="#000" y="9" dy="-0.5em" dx="-.8em" style="text-anchor: end;" transform="rotate(-90)">SRR14325748</text></g><g class="tick" opacity="1" transform="translate(436.7213114754098,0)"><line stroke="#000" y2="6"/><text fill="#000" y="9" dy="-0.5em" dx="-.8em" style="text-anchor: end;" transform="rotate(-90)">SRR14325753</text></g></g><g class="y axis" fill="none" font-size="10" font-family="sans-serif" text-anchor="end"><path class="domain" stroke="#000" d="M-6,600.5H0.5V0.5H-6"/><g class="tick" opacity="1" transform="translate(0,600.5)"><line stroke="#000" x2="-6"/><text fill="#000" x="-9" dy="0.32em">0%</text></g><g class="tick" opacity="1" transform="translate(0,540.5)"><line stroke="#000" x2="-6"/><text fill="#000" x="-9" dy="0.32em">10%</text></g><g class="tick" opacity="1" transform="translate(0,480.5)"><line stroke="#000" x2="-6"/><text fill="#000" x="-9" dy="0.32em">20%</text></g><g class="tick" opacity="1" transform="translate(0,420.5)"><line stroke="#000" x2="-6"/><text fill="#000" x="-9" dy="0.32em">30%</text></g><g class="tick" opacity="1" transform="translate(0,360.5)"><line stroke="#000" x2="-6"/><text fill="#000" x="-9" dy="0.32em">40%</text></g><g class="tick" opacity="1" transform="translate(0,300.5)"><line stroke="#000" x2="-6"/><text fill="#000" x="-9" dy="0.32em">50%</text></g><g class="tick" opacity="1" transform="translate(0,240.5)"><line stroke="#000" x2="-6"/><text fill="#000" x="-9" dy="0.32em">60%</text></g><g class="tick" opacity="1" transform="translate(0,180.5)"><line stroke="#000" x2="-6"/><text fill="#000" x="-9" dy="0.32em">70%</text></g><g class="tick" opacity="1" transform="translate(0,120.5)"><line stroke="#000" x2="-6"/><text fill="#000" x="-9" dy="0.32em">80%</text></g><g class="tick" opacity="1" transform="translate(0,60.5)"><line stroke="#000" x2="-6"/><text fill="#000" x="-9" dy="0.32em">90%</text></g><g class="tick" opacity="1" transform="translate(0,0.5)"><line stroke="#000" x2="-6"/><text fill="#000" x="-9" dy="0.32em">100%</text></g></g><text id="y-label" text-anchor="middle" style="font: 12px sans-serif;" transform="translate(-30,300)rotate(-90)">Relative Frequency</text><text id="x-label" text-anchor="middle" style="font: 12px sans-serif;" transform="translate(240,695.609375)">Sample</text><g class="layer" style="fill: rgb(127, 201, 127);"><rect x="322.6229508196721" y="0" height="438.2312891485727" width="70.81967213114753"/><rect x="7.868852459016409" y="0" height="223.836389280677" width="70.81967213114753"/><rect x="86.55737704918033" y="0" height="239.27605930394697" width="70.81967213114753"/><rect x="243.93442622950818" y="0" height="428.9903679011841" width="70.81967213114753"/><rect x="165.24590163934425" y="0" height="361.95923253416686" width="70.81967213114753"/><rect x="401.311475409836" y="0" height="438.72617573021137" width="70.81967213114753"/></g><g class="layer" style="fill: rgb(190, 174, 212);"><rect x="322.6229508196721" y="438.2312891485727" height="0" width="70.81967213114753"/><rect x="7.868852459016409" y="223.836389280677" height="7.0521861777151" width="70.81967213114753"/><rect x="86.55737704918033" y="239.27605930394697" height="9.066332773683143" width="70.81967213114753"/><rect x="243.93442622950818" y="428.9903679011841" height="57.86621403300683" width="70.81967213114753"/><rect x="165.24590163934425" y="361.95923253416686" height="125.27516376816413" width="70.81967213114753"/><rect x="401.311475409836" y="438.72617573021137" height="121.81244256203297" width="70.81967213114753"/></g><g class="layer" style="fill: rgb(255, 255, 153);"><rect x="322.6229508196721" y="488.5147681414176" height="32.11606546012723" width="70.81967213114753"/><rect x="7.868852459016409" y="286.3892806770099" height="38.787023977432966" width="70.81967213114753"/><rect x="86.55737704918033" y="374.79297686463104" height="29.52107225178571" width="70.81967213114753"/><rect x="243.93442622950818" y="494.7953945888464" height="8.932698010184254" width="70.81967213114753"/><rect x="165.24590163934425" y="491.32444385329035" height="10.893492501579487" width="70.81967213114753"/><rect x="401.311475409836" y="561.353737963" height="7.288128820873453" width="70.81967213114753"/></g><g class="layer" style="fill: rgb(102, 102, 102);"><rect x="322.6229508196721" y="563.8582852615682" height="0.519917803471003" width="70.81967213114753"/><rect x="7.868852459016409" y="377.22143864598024" height="124.04795486600847" width="70.81967213114753"/><rect x="86.55737704918033" y="481.1985999260123" height="39.32159016533399" width="70.81967213114753"/><rect x="243.93442622950818" y="560.1586944518293" height="0.9325344076565898" width="70.81967213114753"/><rect x="165.24590163934425" y="564.8255910617497" height="0.15961161174482186" width="70.81967213114753"/><rect x="401.311475409836" y="582.0194190274503" height="0" width="70.81967213114753"/></g><g class="layer" style="fill: rgb(253, 192, 134);"><rect x="322.6229508196721" y="438.2312891485727" height="50.28347899284489" width="70.81967213114753"/><rect x="7.868852459016409" y="230.8885754583921" height="55.50070521861778" width="70.81967213114753"/><rect x="86.55737704918033" y="248.3423920776301" height="126.45058478700093" width="70.81967213114753"/><rect x="243.93442622950818" y="486.8565819341909" height="7.938812654655521" width="70.81967213114753"/><rect x="165.24590163934425" y="487.234396302331" height="4.090047550959355" width="70.81967213114753"/><rect x="401.311475409836" y="560.5386182922443" height="0.815119670755621" width="70.81967213114753"/></g><g class="layer" style="fill: rgb(240, 2, 127);"><rect x="322.6229508196721" y="540.9819019088411" height="3.3868931197544043" width="70.81967213114753"/><rect x="7.868852459016409" y="354.8660084626234" height="5.500705218617725" width="70.81967213114753"/><rect x="86.55737704918033" y="442.1501949290003" height="9.73222162146783" width="70.81967213114753"/><rect x="243.93442622950818" y="519.3848544960019" height="26.933066115871497" width="70.81967213114753"/><rect x="165.24590163934425" y="508.78196388787285" height="49.69906560702293" width="70.81967213114753"/><rect x="401.311475409836" y="572.9332321093219" height="4.8187957006433635" width="70.81967213114753"/></g><g class="layer" style="fill: rgb(191, 91, 23);"><rect x="322.6229508196721" y="544.3687950285955" height="19.489490232972685" width="70.81967213114753"/><rect x="7.868852459016409" y="360.36671368124115" height="16.85472496473909" width="70.81967213114753"/><rect x="86.55737704918033" y="451.8824165504681" height="29.3161833755442" width="70.81967213114753"/><rect x="243.93442622950818" y="546.3179206118734" height="13.840773839955887" width="70.81967213114753"/><rect x="165.24590163934425" y="558.4810294948958" height="6.34456156685394" width="70.81967213114753"/><rect x="401.311475409836" y="577.7520278099653" height="4.267391217485056" width="70.81967213114753"/></g><g class="layer" style="fill: rgb(127, 201, 127);"><rect x="322.6229508196721" y="564.3782030650392" height="3.164071203981166" width="70.81967213114753"/><rect x="7.868852459016409" y="501.2693935119887" height="10.860366713681287" width="70.81967213114753"/><rect x="86.55737704918033" y="520.5201900913463" height="18.030221109245645" width="70.81967213114753"/><rect x="243.93442622950818" y="561.0912288594859" height="5.7792592895559665" width="70.81967213114753"/><rect x="165.24590163934425" y="564.9852026734945" height="6.703687693279676" width="70.81967213114753"/><rect x="401.311475409836" y="582.0194190274503" height="4.483158189155688" width="70.81967213114753"/></g><g class="layer" style="fill: rgb(56, 108, 176);"><rect x="322.6229508196721" y="520.6308336015449" height="20.35106830729626" width="70.81967213114753"/><rect x="7.868852459016409" y="325.17630465444284" height="29.68970380818058" width="70.81967213114753"/><rect x="86.55737704918033" y="404.31404911641675" height="37.83614581258354" width="70.81967213114753"/><rect x="243.93442622950818" y="503.7280925990307" height="15.656761896971261" width="70.81967213114753"/><rect x="165.24590163934425" y="502.21793635486983" height="6.564027533003014" width="70.81967213114753"/><rect x="401.311475409836" y="568.6418667838734" height="4.29136532544851" width="70.81967213114753"/></g><g class="layer" style="fill: rgb(56, 108, 176);"><rect x="322.6229508196721" y="590.3443836498229" height="0.5941917753955295" width="70.81967213114753"/><rect x="7.868852459016409" y="575.9520451339915" height="1.339915373765848" width="70.81967213114753"/><rect x="86.55737704918033" y="576.9841495688796" height="3.5343331151647135" width="70.81967213114753"/><rect x="243.93442622950818" y="580.7971533160187" height="7.6811386735925" width="70.81967213114753"/><rect x="165.24590163934425" y="579.3901506334586" height="4.947959964087431" width="70.81967213114753"/><rect x="401.311475409836" y="589.8349782235186" height="1.7261357733647174" width="70.81967213114753"/></g><g class="layer" style="fill: rgb(253, 192, 134);"><rect x="322.6229508196721" y="578.3714193756035" height="8.452378005001037" width="70.81967213114753"/><rect x="7.868852459016409" y="526.8688293370946" height="12.482369534555687" width="70.81967213114753"/><rect x="86.55737704918033" y="556.0854841922541" height="10.842036367775563" width="70.81967213114753"/><rect x="243.93442622950818" y="570.5147344526473" height="7.460275261252832" width="70.81967213114753"/><rect x="165.24590163934425" y="572.4470455225618" height="3.730921424533676" width="70.81967213114753"/><rect x="401.311475409836" y="589.0438326607264" height="0" width="70.81967213114753"/></g><g class="layer" style="fill: rgb(190, 174, 212);"><rect x="322.6229508196721" y="567.5422742690204" height="10.829145106583155" width="70.81967213114753"/><rect x="7.868852459016409" y="512.12976022567" height="14.739069111424556" width="70.81967213114753"/><rect x="86.55737704918033" y="538.550411200592" height="17.535072991662105" width="70.81967213114753"/><rect x="243.93442622950818" y="566.8704881490419" height="3.644246303605428" width="70.81967213114753"/><rect x="165.24590163934425" y="571.6888903667742" height="0.7581551557875628" width="70.81967213114753"/><rect x="401.311475409836" y="586.502577216606" height="2.5412554441203383" width="70.81967213114753"/></g><g class="layer" style="fill: rgb(255, 255, 153);"><rect x="322.6229508196721" y="586.8237973806046" height="3.52058626921837" width="70.81967213114753"/><rect x="7.868852459016409" y="539.3511988716502" height="36.60084626234129" width="70.81967213114753"/><rect x="86.55737704918033" y="566.9275205600296" height="10.056629008849995" width="70.81967213114753"/><rect x="243.93442622950818" y="577.9750097139001" height="2.822143602118558" width="70.81967213114753"/><rect x="165.24590163934425" y="576.1779669470955" height="3.212183686363119" width="70.81967213114753"/><rect x="401.311475409836" y="589.0438326607264" height="0.7911455627922805" width="70.81967213114753"/></g><g class="layer" style="fill: rgb(240, 2, 127);"><rect x="322.6229508196721" y="590.9385754252185" height="0.8764328687084344" width="70.81967213114753"/><rect x="7.868852459016409" y="577.2919605077574" height="0.9873060648801584" width="70.81967213114753"/><rect x="86.55737704918033" y="580.5184826840443" height="0.6829629208046981" width="70.81967213114753"/><rect x="243.93442622950818" y="588.4782919896112" height="4.5399701425387775" width="70.81967213114753"/><rect x="165.24590163934425" y="584.338110597546" height="6.164998503641073" width="70.81967213114753"/><rect x="401.311475409836" y="591.5611139968834" height="5.657889479362325" width="70.81967213114753"/></g><g class="layer" style="fill: rgb(190, 174, 212);"><rect x="322.6229508196721" y="595.8555123666164" height="0.6684657473199422" width="70.81967213114753"/><rect x="7.868852459016409" y="585.9661495063469" height="3.4555712270804406" width="70.81967213114753"/><rect x="86.55737704918033" y="591.0531857374576" height="0" width="70.81967213114753"/><rect x="243.93442622950818" y="594.8710607578887" height="1.656475592547963" width="70.81967213114753"/><rect x="165.24590163934425" y="597.2267482459349" height="1.5961161174475365" width="70.81967213114753"/><rect x="401.311475409836" y="599.041035681464" height="0" width="70.81967213114753"/></g><g class="layer" style="fill: rgb(191, 91, 23);"><rect x="322.6229508196721" y="591.8150082939269" height="1.0398356069421197" width="70.81967213114753"/><rect x="7.868852459016409" y="578.2792665726375" height="1.339915373765848" width="70.81967213114753"/><rect x="86.55737704918033" y="581.201445604849" height="7.290629179590837" width="70.81967213114753"/><rect x="243.93442622950818" y="593.01826213215" height="0" width="70.81967213114753"/><rect x="165.24590163934425" y="590.5031091011871" height="1.9951451468094774" width="70.81967213114753"/><rect x="401.311475409836" y="597.2190034762457" height="0.887041994645756" width="70.81967213114753"/></g><g class="layer" style="fill: rgb(102, 102, 102);"><rect x="322.6229508196721" y="592.854843900869" height="0.742739719244355" width="70.81967213114753"/><rect x="7.868852459016409" y="579.6191819464034" height="0.9167842031029068" width="70.81967213114753"/><rect x="86.55737704918033" y="588.4920747844399" height="0.8878517970460962" width="70.81967213114753"/><rect x="243.93442622950818" y="593.01826213215" height="1.8527986257387283" width="70.81967213114753"/><rect x="165.24590163934425" y="592.4982542479966" height="4.728493997938358" width="70.81967213114753"/><rect x="401.311475409836" y="598.1060454708914" height="0.9349902105725505" width="70.81967213114753"/></g><g class="layer" style="fill: rgb(127, 201, 127);"><rect x="322.6229508196721" y="593.5975836201134" height="2.257928746503012" width="70.81967213114753"/><rect x="7.868852459016409" y="580.5359661495063" height="5.430183356840644" width="70.81967213114753"/><rect x="86.55737704918033" y="589.379926581486" height="1.6732591559716639" width="70.81967213114753"/><rect x="243.93442622950818" y="594.8710607578887" height="0" width="70.81967213114753"/><rect x="165.24590163934425" y="597.2267482459349" height="0" width="70.81967213114753"/><rect x="401.311475409836" y="599.041035681464" height="0" width="70.81967213114753"/></g><g class="layer" style="fill: rgb(253, 192, 134);"><rect x="322.6229508196721" y="596.5239781139363" height="0.4604986259314501" width="70.81967213114753"/><rect x="7.868852459016409" y="589.4217207334274" height="2.679830747531696" width="70.81967213114753"/><rect x="86.55737704918033" y="591.0531857374576" height="2.5269628069776218" width="70.81967213114753"/><rect x="243.93442622950818" y="596.5275363504367" height="0.25767398106290784" width="70.81967213114753"/><rect x="165.24590163934425" y="598.8228643633825" height="0.13966016027666228" width="70.81967213114753"/><rect x="401.311475409836" y="599.041035681464" height="0" width="70.81967213114753"/></g><g class="layer" style="fill: rgb(56, 108, 176);"><rect x="322.6229508196721" y="597.2370082444108" height="1.0398356069422334" width="70.81967213114753"/><rect x="7.868852459016409" y="592.5952045133992" height="0" width="70.81967213114753"/><rect x="86.55737704918033" y="594.1606670271193" height="0" width="70.81967213114753"/><rect x="243.93442622950818" y="597.5827726538375" height="0.09816151659538264" width="70.81967213114753"/><rect x="165.24590163934425" y="598.9625245236591" height="0.17956306321286775" width="70.81967213114753"/><rect x="401.311475409836" y="599.1848803292444" height="0" width="70.81967213114753"/></g><g class="layer" style="fill: rgb(255, 255, 153);"><rect x="322.6229508196721" y="596.9844767398678" height="0.2525315045430716" width="70.81967213114753"/><rect x="7.868852459016409" y="592.1015514809591" height="0.4936530324400792" width="70.81967213114753"/><rect x="86.55737704918033" y="593.5801485444352" height="0.5805184826840559" width="70.81967213114753"/><rect x="243.93442622950818" y="596.7852103314996" height="0.7975623223379671" width="70.81967213114753"/><rect x="165.24590163934425" y="598.9625245236591" height="0" width="70.81967213114753"/><rect x="401.311475409836" y="599.041035681464" height="0.14384464778038364" width="70.81967213114753"/></g><g class="layer" style="fill: rgb(253, 192, 134);"><rect x="322.6229508196721" y="598.6630685053601" height="0" width="70.81967213114753"/><rect x="7.868852459016409" y="595.4160789844852" height="0" width="70.81967213114753"/><rect x="86.55737704918033" y="595.8851484021513" height="0.785407358925454" width="70.81967213114753"/><rect x="243.93442622950818" y="598.3680647866009" height="0" width="70.81967213114753"/><rect x="165.24590163934425" y="599.6408738735743" height="0" width="70.81967213114753"/><rect x="401.311475409836" y="599.6643624885124" height="0" width="70.81967213114753"/></g><g class="layer" style="fill: rgb(190, 174, 212);"><rect x="322.6229508196721" y="598.6630685053601" height="0" width="70.81967213114753"/><rect x="7.868852459016409" y="595.2045133991537" height="0.21156558533152747" width="70.81967213114753"/><rect x="86.55737704918033" y="595.2021854813465" height="0.6829629208048118" width="70.81967213114753"/><rect x="243.93442622950818" y="598.2699032700056" height="0.09816151659538264" width="70.81967213114753"/><rect x="165.24590163934425" y="599.6408738735743" height="0" width="70.81967213114753"/><rect x="401.311475409836" y="599.6643624885124" height="0" width="70.81967213114753"/></g><g class="layer" style="fill: rgb(255, 255, 153);"><rect x="322.6229508196721" y="598.6630685053601" height="0" width="70.81967213114753"/><rect x="7.868852459016409" y="595.4160789844852" height="0.705218617771493" width="70.81967213114753"/><rect x="86.55737704918033" y="596.6705557610768" height="0.5975925557041819" width="70.81967213114753"/><rect x="243.93442622950818" y="598.3680647866009" height="0" width="70.81967213114753"/><rect x="165.24590163934425" y="599.6408738735743" height="0" width="70.81967213114753"/><rect x="401.311475409836" y="599.6643624885124" height="0" width="70.81967213114753"/></g><g class="layer" style="fill: rgb(56, 108, 176);"><rect x="322.6229508196721" y="598.6630685053601" height="0.08912876630927258" width="70.81967213114753"/><rect x="7.868852459016409" y="596.1212976022567" height="0" width="70.81967213114753"/><rect x="86.55737704918033" y="597.268148316781" height="0" width="70.81967213114753"/><rect x="243.93442622950818" y="598.3680647866009" height="0.41718644553054673" width="70.81967213114753"/><rect x="165.24590163934425" y="599.6408738735743" height="0" width="70.81967213114753"/><rect x="401.311475409836" y="599.6643624885124" height="0" width="70.81967213114753"/></g><g class="layer" style="fill: rgb(240, 2, 127);"><rect x="322.6229508196721" y="598.2768438513531" height="0" width="70.81967213114753"/><rect x="7.868852459016409" y="592.5952045133992" height="0.21156558533141379" width="70.81967213114753"/><rect x="86.55737704918033" y="594.1606670271193" height="0.4439258985231618" width="70.81967213114753"/><rect x="243.93442622950818" y="597.6809341704329" height="0.2699441706374728" width="70.81967213114753"/><rect x="165.24590163934425" y="599.142087586872" height="0.13966016027666228" width="70.81967213114753"/><rect x="401.311475409836" y="599.1848803292444" height="0" width="70.81967213114753"/></g><g class="layer" style="fill: rgb(190, 174, 212);"><rect x="322.6229508196721" y="599.1681315144463" height="0.1188383550791059" width="70.81967213114753"/><rect x="7.868852459016409" y="597.0380818053596" height="0" width="70.81967213114753"/><rect x="86.55737704918033" y="598.0194075296662" height="0.10244443812075588" width="70.81967213114753"/><rect x="243.93442622950818" y="599.0183848340457" height="0.03681056872324007" width="70.81967213114753"/><rect x="165.24590163934425" y="599.8204369367871" height="0" width="70.81967213114753"/><rect x="401.311475409836" y="599.6643624885124" height="0.16781875574372407" width="70.81967213114753"/></g><g class="layer" style="fill: rgb(127, 201, 127);"><rect x="322.6229508196721" y="598.4996657671263" height="0.16340273823379903" width="70.81967213114753"/><rect x="7.868852459016409" y="594.3582510578279" height="0.8462623413257688" width="70.81967213114753"/><rect x="86.55737704918033" y="595.2021854813465" height="0" width="70.81967213114753"/><rect x="243.93442622950818" y="598.1349311846868" height="0.1349720853187364" width="70.81967213114753"/><rect x="165.24590163934425" y="599.5012137132976" height="0.13966016027666228" width="70.81967213114753"/><rect x="401.311475409836" y="599.4246214088785" height="0.23974107963397273" width="70.81967213114753"/></g><g class="layer" style="fill: rgb(102, 102, 102);"><rect x="322.6229508196721" y="598.2768438513531" height="0.2228219157732383" width="70.81967213114753"/><rect x="7.868852459016409" y="593.4414668547249" height="0.9167842031030204" width="70.81967213114753"/><rect x="86.55737704918033" y="594.9631484590649" height="0.23903702228165002" width="70.81967213114753"/><rect x="243.93442622950818" y="598.024499478517" height="0.11043170616983389" width="70.81967213114753"/><rect x="165.24590163934425" y="599.5012137132976" height="0" width="70.81967213114753"/><rect x="401.311475409836" y="599.4246214088785" height="0" width="70.81967213114753"/></g><g class="layer" style="fill: rgb(191, 91, 23);"><rect x="322.6229508196721" y="598.2768438513531" height="0" width="70.81967213114753"/><rect x="7.868852459016409" y="592.8067700987306" height="0.634696755994355" width="70.81967213114753"/><rect x="86.55737704918033" y="594.6045929256425" height="0.3585555334224182" width="70.81967213114753"/><rect x="243.93442622950818" y="597.9508783410704" height="0.07362113744659382" width="70.81967213114753"/><rect x="165.24590163934425" y="599.2817477471486" height="0.21946596614895952" width="70.81967213114753"/><rect x="401.311475409836" y="599.1848803292444" height="0.23974107963408642" width="70.81967213114753"/></g><g class="layer" style="fill: rgb(253, 192, 134);"><rect x="322.6229508196721" y="599.2869698695254" height="0" width="70.81967213114753"/><rect x="7.868852459016409" y="597.0380818053596" height="0.4936530324400792" width="70.81967213114753"/><rect x="86.55737704918033" y="598.1218519677869" height="0.15366665718102013" width="70.81967213114753"/><rect x="243.93442622950818" y="599.055195402769" height="0.04908075829769132" width="70.81967213114753"/><rect x="165.24590163934425" y="599.8204369367871" height="0" width="70.81967213114753"/><rect x="401.311475409836" y="599.8321812442562" height="0" width="70.81967213114753"/></g><g class="layer" style="fill: rgb(127, 201, 127);"><rect x="322.6229508196721" y="599.1681315144463" height="0" width="70.81967213114753"/><rect x="7.868852459016409" y="597.0380818053596" height="0" width="70.81967213114753"/><rect x="86.55737704918033" y="597.6950001422839" height="0.3244073873822799" width="70.81967213114753"/><rect x="243.93442622950818" y="598.9938444548968" height="0.024540379148902502" width="70.81967213114753"/><rect x="165.24590163934425" y="599.7605825823829" height="0.05985435440425135" width="70.81967213114753"/><rect x="401.311475409836" y="599.6643624885124" height="0" width="70.81967213114753"/></g><g class="layer" style="fill: rgb(240, 2, 127);"><rect x="322.6229508196721" y="598.7521972716694" height="0.2673862989280451" width="70.81967213114753"/><rect x="7.868852459016409" y="596.1212976022567" height="0.9167842031029068" width="70.81967213114753"/><rect x="86.55737704918033" y="597.268148316781" height="0" width="70.81967213114753"/><rect x="243.93442622950818" y="598.7852512321315" height="0" width="70.81967213114753"/><rect x="165.24590163934425" y="599.6408738735743" height="0.1197087088086164" width="70.81967213114753"/><rect x="401.311475409836" y="599.6643624885124" height="0" width="70.81967213114753"/></g><g class="layer" style="fill: rgb(191, 91, 23);"><rect x="322.6229508196721" y="599.0195835705974" height="0" width="70.81967213114753"/><rect x="7.868852459016409" y="597.0380818053596" height="0" width="70.81967213114753"/><rect x="86.55737704918033" y="597.268148316781" height="0.30733331436215394" width="70.81967213114753"/><rect x="243.93442622950818" y="598.7852512321315" height="0.12270189574428514" width="70.81967213114753"/><rect x="165.24590163934425" y="599.7605825823829" height="0" width="70.81967213114753"/><rect x="401.311475409836" y="599.6643624885124" height="0" width="70.81967213114753"/></g><g class="layer" style="fill: rgb(102, 102, 102);"><rect x="322.6229508196721" y="599.5246465796836" height="0" width="70.81967213114753"/><rect x="7.868852459016409" y="598.3779971791255" height="0" width="70.81967213114753"/><rect x="86.55737704918033" y="598.6170000853704" height="0.23903702228165002" width="70.81967213114753"/><rect x="243.93442622950818" y="599.3005991942575" height="0" width="70.81967213114753"/><rect x="165.24590163934425" y="599.8204369367871" height="0" width="70.81967213114753"/><rect x="401.311475409836" y="599.8321812442562" height="0" width="70.81967213114753"/></g><g class="layer" style="fill: rgb(255, 255, 153);"><rect x="322.6229508196721" y="599.2869698695254" height="0.07427397192441276" width="70.81967213114753"/><rect x="7.868852459016409" y="597.5317348377997" height="0.5641748942172171" width="70.81967213114753"/><rect x="86.55737704918033" y="598.275518624968" height="0" width="70.81967213114753"/><rect x="243.93442622950818" y="599.1042761610667" height="0.07362113744659382" width="70.81967213114753"/><rect x="165.24590163934425" y="599.8204369367871" height="0" width="70.81967213114753"/><rect x="401.311475409836" y="599.8321812442562" height="0" width="70.81967213114753"/></g><g class="layer" style="fill: rgb(255, 255, 153);"><rect x="322.6229508196721" y="599.598920551608" height="0" width="70.81967213114753"/><rect x="7.868852459016409" y="598.8716502115656" height="0" width="70.81967213114753"/><rect x="86.55737704918033" y="598.9755556187929" height="0.20488887624139807" width="70.81967213114753"/><rect x="243.93442622950818" y="599.5091924170229" height="0" width="70.81967213114753"/><rect x="165.24590163934425" y="599.8204369367871" height="0" width="70.81967213114753"/><rect x="401.311475409836" y="599.8321812442562" height="0" width="70.81967213114753"/></g><g class="layer" style="fill: rgb(56, 108, 176);"><rect x="322.6229508196721" y="599.3612438414498" height="0" width="70.81967213114753"/><rect x="7.868852459016409" y="598.0959097320169" height="0.2820874471085517" width="70.81967213114753"/><rect x="86.55737704918033" y="598.275518624968" height="0.11951851114088186" width="70.81967213114753"/><rect x="243.93442622950818" y="599.1778972985132" height="0.06135094787214257" width="70.81967213114753"/><rect x="165.24590163934425" y="599.8204369367871" height="0" width="70.81967213114753"/><rect x="401.311475409836" y="599.8321812442562" height="0" width="70.81967213114753"/></g><g class="layer" style="fill: rgb(102, 102, 102);"><rect x="322.6229508196721" y="599.0195835705974" height="0.14854794384882553" width="70.81967213114753"/><rect x="7.868852459016409" y="597.0380818053596" height="0" width="70.81967213114753"/><rect x="86.55737704918033" y="597.5754816311431" height="0.11951851114076817" width="70.81967213114753"/><rect x="243.93442622950818" y="598.9079531278758" height="0.08589132702104507" width="70.81967213114753"/><rect x="165.24590163934425" y="599.7605825823829" height="0" width="70.81967213114753"/><rect x="401.311475409836" y="599.6643624885124" height="0" width="70.81967213114753"/></g><g class="layer" style="fill: rgb(240, 2, 127);"><rect x="322.6229508196721" y="599.598920551608" height="0.1336931494640794" width="70.81967213114753"/><rect x="7.868852459016409" y="598.8716502115656" height="0" width="70.81967213114753"/><rect x="86.55737704918033" y="599.3341111522153" height="0" width="70.81967213114753"/><rect x="243.93442622950818" y="599.5091924170229" height="0" width="70.81967213114753"/><rect x="165.24590163934425" y="599.8204369367871" height="0" width="70.81967213114753"/><rect x="401.311475409836" y="599.8321812442562" height="0" width="70.81967213114753"/></g><g class="layer" style="fill: rgb(56, 108, 176);"><rect x="322.6229508196721" y="599.598920551608" height="0" width="70.81967213114753"/><rect x="7.868852459016409" y="598.8716502115656" height="0" width="70.81967213114753"/><rect x="86.55737704918033" y="599.1804444950343" height="0.15366665718102013" width="70.81967213114753"/><rect x="243.93442622950818" y="599.5091924170229" height="0" width="70.81967213114753"/><rect x="165.24590163934425" y="599.8204369367871" height="0" width="70.81967213114753"/><rect x="401.311475409836" y="599.8321812442562" height="0" width="70.81967213114753"/></g><g class="layer" style="fill: rgb(253, 192, 134);"><rect x="322.6229508196721" y="599.598920551608" height="0" width="70.81967213114753"/><rect x="7.868852459016409" y="598.8716502115656" height="0" width="70.81967213114753"/><rect x="86.55737704918033" y="598.9243333997325" height="0.05122221906037794" width="70.81967213114753"/><rect x="243.93442622950818" y="599.398760710853" height="0.11043170616983389" width="70.81967213114753"/><rect x="165.24590163934425" y="599.8204369367871" height="0" width="70.81967213114753"/><rect x="401.311475409836" y="599.8321812442562" height="0" width="70.81967213114753"/></g><g class="layer" style="fill: rgb(191, 91, 23);"><rect x="322.6229508196721" y="599.4355178133743" height="0.08912876630927258" width="70.81967213114753"/><rect x="7.868852459016409" y="598.3779971791255" height="0" width="70.81967213114753"/><rect x="86.55737704918033" y="598.4804075012095" height="0.13659258416089415" width="70.81967213114753"/><rect x="243.93442622950818" y="599.3005991942575" height="0" width="70.81967213114753"/><rect x="165.24590163934425" y="599.8204369367871" height="0" width="70.81967213114753"/><rect x="401.311475409836" y="599.8321812442562" height="0" width="70.81967213114753"/></g><g class="layer" style="fill: rgb(191, 91, 23);"><rect x="322.6229508196721" y="599.7326137010721" height="0" width="70.81967213114753"/><rect x="7.868852459016409" y="598.8716502115656" height="0" width="70.81967213114753"/><rect x="86.55737704918033" y="599.3341111522153" height="0.13659258416100784" width="70.81967213114753"/><rect x="243.93442622950818" y="599.5091924170229" height="0" width="70.81967213114753"/><rect x="165.24590163934425" y="599.8204369367871" height="0" width="70.81967213114753"/><rect x="401.311475409836" y="599.8321812442562" height="0" width="70.81967213114753"/></g><g class="layer" style="fill: rgb(190, 174, 212);"><rect x="322.6229508196721" y="599.598920551608" height="0" width="70.81967213114753"/><rect x="7.868852459016409" y="598.8716502115656" height="0" width="70.81967213114753"/><rect x="86.55737704918033" y="598.856037107652" height="0.06829629208050392" width="70.81967213114753"/><rect x="243.93442622950818" y="599.3005991942575" height="0.09816151659549632" width="70.81967213114753"/><rect x="165.24590163934425" y="599.8204369367871" height="0" width="70.81967213114753"/><rect x="401.311475409836" y="599.8321812442562" height="0" width="70.81967213114753"/></g><g class="layer" style="fill: rgb(127, 201, 127);"><rect x="322.6229508196721" y="599.5246465796836" height="0.07427397192441276" width="70.81967213114753"/><rect x="7.868852459016409" y="598.3779971791255" height="0.4936530324400792" width="70.81967213114753"/><rect x="86.55737704918033" y="598.856037107652" height="0" width="70.81967213114753"/><rect x="243.93442622950818" y="599.3005991942575" height="0" width="70.81967213114753"/><rect x="165.24590163934425" y="599.8204369367871" height="0" width="70.81967213114753"/><rect x="401.311475409836" y="599.8321812442562" height="0" width="70.81967213114753"/></g><g class="layer" style="fill: rgb(240, 2, 127);"><rect x="322.6229508196721" y="599.7920328786116" height="0" width="70.81967213114753"/><rect x="7.868852459016409" y="598.8716502115656" height="0.4936530324400792" width="70.81967213114753"/><rect x="86.55737704918033" y="599.709740758658" height="0" width="70.81967213114753"/><rect x="243.93442622950818" y="599.6809750710648" height="0" width="70.81967213114753"/><rect x="165.24590163934425" y="599.8802912911914" height="0" width="70.81967213114753"/><rect x="401.311475409836" y="600" height="0" width="70.81967213114753"/></g><g class="layer" style="fill: rgb(56, 108, 176);"><rect x="322.6229508196721" y="599.7920328786116" height="0" width="70.81967213114753"/><rect x="7.868852459016409" y="598.8716502115656" height="0" width="70.81967213114753"/><rect x="86.55737704918033" y="599.5902222475171" height="0.11951851114088186" width="70.81967213114753"/><rect x="243.93442622950818" y="599.6809750710648" height="0" width="70.81967213114753"/><rect x="165.24590163934425" y="599.8802912911914" height="0" width="70.81967213114753"/><rect x="401.311475409836" y="600" height="0" width="70.81967213114753"/></g><g class="layer" style="fill: rgb(255, 255, 153);"><rect x="322.6229508196721" y="599.7920328786116" height="0" width="70.81967213114753"/><rect x="7.868852459016409" y="598.8716502115656" height="0" width="70.81967213114753"/><rect x="86.55737704918033" y="599.4707037363763" height="0.11951851114076817" width="70.81967213114753"/><rect x="243.93442622950818" y="599.6809750710648" height="0" width="70.81967213114753"/><rect x="165.24590163934425" y="599.8802912911914" height="0" width="70.81967213114753"/><rect x="401.311475409836" y="600" height="0" width="70.81967213114753"/></g><g class="layer" style="fill: rgb(253, 192, 134);"><rect x="322.6229508196721" y="599.7920328786116" height="0" width="70.81967213114753"/><rect x="7.868852459016409" y="598.8716502115656" height="0" width="70.81967213114753"/><rect x="86.55737704918033" y="599.4707037363763" height="0" width="70.81967213114753"/><rect x="243.93442622950818" y="599.5950837440438" height="0.08589132702104507" width="70.81967213114753"/><rect x="165.24590163934425" y="599.8802912911914" height="0" width="70.81967213114753"/><rect x="401.311475409836" y="600" height="0" width="70.81967213114753"/></g><g class="layer" style="fill: rgb(190, 174, 212);"><rect x="322.6229508196721" y="599.7920328786116" height="0" width="70.81967213114753"/><rect x="7.868852459016409" y="598.8716502115656" height="0" width="70.81967213114753"/><rect x="86.55737704918033" y="599.4707037363763" height="0" width="70.81967213114753"/><rect x="243.93442622950818" y="599.5091924170229" height="0.08589132702093139" width="70.81967213114753"/><rect x="165.24590163934425" y="599.8802912911914" height="0" width="70.81967213114753"/><rect x="401.311475409836" y="600" height="0" width="70.81967213114753"/></g><g class="layer" style="fill: rgb(127, 201, 127);"><rect x="322.6229508196721" y="599.7920328786116" height="0" width="70.81967213114753"/><rect x="7.868852459016409" y="598.8716502115656" height="0" width="70.81967213114753"/><rect x="86.55737704918033" y="599.4707037363763" height="0" width="70.81967213114753"/><rect x="243.93442622950818" y="599.5091924170229" height="0" width="70.81967213114753"/><rect x="165.24590163934425" y="599.8802912911914" height="0" width="70.81967213114753"/><rect x="401.311475409836" y="599.8321812442562" height="0.16781875574383776" width="70.81967213114753"/></g><g class="layer" style="fill: rgb(102, 102, 102);"><rect x="322.6229508196721" y="599.7920328786116" height="0" width="70.81967213114753"/><rect x="7.868852459016409" y="599.3653032440056" height="0" width="70.81967213114753"/><rect x="86.55737704918033" y="599.709740758658" height="0.10244443812075588" width="70.81967213114753"/><rect x="243.93442622950818" y="599.6809750710648" height="0" width="70.81967213114753"/><rect x="165.24590163934425" y="600" height="0" width="70.81967213114753"/><rect x="401.311475409836" y="600" height="0" width="70.81967213114753"/></g><g class="layer" style="fill: rgb(191, 91, 23);"><rect x="322.6229508196721" y="599.7920328786116" height="0" width="70.81967213114753"/><rect x="7.868852459016409" y="599.3653032440056" height="0" width="70.81967213114753"/><rect x="86.55737704918033" y="599.709740758658" height="0" width="70.81967213114753"/><rect x="243.93442622950818" y="599.6809750710648" height="0" width="70.81967213114753"/><rect x="165.24590163934425" y="599.8802912911914" height="0.1197087088086164" width="70.81967213114753"/><rect x="401.311475409836" y="600" height="0" width="70.81967213114753"/></g><g class="layer" style="fill: rgb(240, 2, 127);"><rect x="322.6229508196721" y="599.3612438414498" height="0.07427397192452645" width="70.81967213114753"/><rect x="7.868852459016409" y="598.3779971791255" height="0" width="70.81967213114753"/><rect x="86.55737704918033" y="598.3950371361088" height="0.0853703651006299" width="70.81967213114753"/><rect x="243.93442622950818" y="599.2392482463854" height="0.06135094787214257" width="70.81967213114753"/><rect x="165.24590163934425" y="599.8204369367871" height="0" width="70.81967213114753"/><rect x="401.311475409836" y="599.8321812442562" height="0" width="70.81967213114753"/></g><g class="layer" style="fill: rgb(191, 91, 23);"><rect x="322.6229508196721" y="599.866306850536" height="0.07427397192441276" width="70.81967213114753"/><rect x="7.868852459016409" y="599.7179125528914" height="0" width="70.81967213114753"/><rect x="86.55737704918033" y="599.8121851967787" height="0" width="70.81967213114753"/><rect x="243.93442622950818" y="599.9263788625534" height="0" width="70.81967213114753"/><rect x="165.24590163934425" y="600" height="0" width="70.81967213114753"/><rect x="401.311475409836" y="600" height="0" width="70.81967213114753"/></g><g class="layer" style="fill: rgb(240, 2, 127);"><rect x="322.6229508196721" y="599.7920328786116" height="0.07427397192441276" width="70.81967213114753"/><rect x="7.868852459016409" y="599.7179125528914" height="0" width="70.81967213114753"/><rect x="86.55737704918033" y="599.8121851967787" height="0" width="70.81967213114753"/><rect x="243.93442622950818" y="599.9263788625534" height="0" width="70.81967213114753"/><rect x="165.24590163934425" y="600" height="0" width="70.81967213114753"/><rect x="401.311475409836" y="600" height="0" width="70.81967213114753"/></g><g class="layer" style="fill: rgb(56, 108, 176);"><rect x="322.6229508196721" y="599.7920328786116" height="0" width="70.81967213114753"/><rect x="7.868852459016409" y="599.3653032440056" height="0.35260930888580333" width="70.81967213114753"/><rect x="86.55737704918033" y="599.8121851967787" height="0" width="70.81967213114753"/><rect x="243.93442622950818" y="599.9263788625534" height="0" width="70.81967213114753"/><rect x="165.24590163934425" y="600" height="0" width="70.81967213114753"/><rect x="401.311475409836" y="600" height="0" width="70.81967213114753"/></g><g class="layer" style="fill: rgb(255, 255, 153);"><rect x="322.6229508196721" y="599.7920328786116" height="0" width="70.81967213114753"/><rect x="7.868852459016409" y="599.3653032440056" height="0" width="70.81967213114753"/><rect x="86.55737704918033" y="599.8121851967787" height="0" width="70.81967213114753"/><rect x="243.93442622950818" y="599.8650279146813" height="0.06135094787214257" width="70.81967213114753"/><rect x="165.24590163934425" y="600" height="0" width="70.81967213114753"/><rect x="401.311475409836" y="600" height="0" width="70.81967213114753"/></g><g class="layer" style="fill: rgb(253, 192, 134);"><rect x="322.6229508196721" y="599.7920328786116" height="0" width="70.81967213114753"/><rect x="7.868852459016409" y="599.3653032440056" height="0" width="70.81967213114753"/><rect x="86.55737704918033" y="599.8121851967787" height="0" width="70.81967213114753"/><rect x="243.93442622950818" y="599.8036769668091" height="0.06135094787214257" width="70.81967213114753"/><rect x="165.24590163934425" y="600" height="0" width="70.81967213114753"/><rect x="401.311475409836" y="600" height="0" width="70.81967213114753"/></g><g class="layer" style="fill: rgb(190, 174, 212);"><rect x="322.6229508196721" y="599.7920328786116" height="0" width="70.81967213114753"/><rect x="7.868852459016409" y="599.3653032440056" height="0" width="70.81967213114753"/><rect x="86.55737704918033" y="599.8121851967787" height="0" width="70.81967213114753"/><rect x="243.93442622950818" y="599.742326018937" height="0.06135094787214257" width="70.81967213114753"/><rect x="165.24590163934425" y="600" height="0" width="70.81967213114753"/><rect x="401.311475409836" y="600" height="0" width="70.81967213114753"/></g><g class="layer" style="fill: rgb(127, 201, 127);"><rect x="322.6229508196721" y="599.7920328786116" height="0" width="70.81967213114753"/><rect x="7.868852459016409" y="599.3653032440056" height="0" width="70.81967213114753"/><rect x="86.55737704918033" y="599.8121851967787" height="0" width="70.81967213114753"/><rect x="243.93442622950818" y="599.6809750710648" height="0.06135094787214257" width="70.81967213114753"/><rect x="165.24590163934425" y="600" height="0" width="70.81967213114753"/><rect x="401.311475409836" y="600" height="0" width="70.81967213114753"/></g><g class="layer" style="fill: rgb(102, 102, 102);"><rect x="322.6229508196721" y="599.7326137010721" height="0.05941917753955295" width="70.81967213114753"/><rect x="7.868852459016409" y="598.8716502115656" height="0" width="70.81967213114753"/><rect x="86.55737704918033" y="599.4707037363763" height="0" width="70.81967213114753"/><rect x="243.93442622950818" y="599.5091924170229" height="0" width="70.81967213114753"/><rect x="165.24590163934425" y="599.8204369367871" height="0.05985435440425135" width="70.81967213114753"/><rect x="401.311475409836" y="599.8321812442562" height="0" width="70.81967213114753"/></g><g class="layer" style="fill: rgb(253, 192, 134);"><rect x="322.6229508196721" y="599.9405808224604" height="0" width="70.81967213114753"/><rect x="7.868852459016409" y="599.7179125528914" height="0.2820874471085517" width="70.81967213114753"/><rect x="86.55737704918033" y="599.9487777809396" height="0" width="70.81967213114753"/><rect x="243.93442622950818" y="599.9754596208511" height="0" width="70.81967213114753"/><rect x="165.24590163934425" y="600" height="0" width="70.81967213114753"/><rect x="401.311475409836" y="600" height="0" width="70.81967213114753"/></g><g class="layer" style="fill: rgb(190, 174, 212);"><rect x="322.6229508196721" y="599.9405808224604" height="0" width="70.81967213114753"/><rect x="7.868852459016409" y="599.7179125528914" height="0" width="70.81967213114753"/><rect x="86.55737704918033" y="599.8804814888591" height="0.06829629208050392" width="70.81967213114753"/><rect x="243.93442622950818" y="599.9754596208511" height="0" width="70.81967213114753"/><rect x="165.24590163934425" y="600" height="0" width="70.81967213114753"/><rect x="401.311475409836" y="600" height="0" width="70.81967213114753"/></g><g class="layer" style="fill: rgb(127, 201, 127);"><rect x="322.6229508196721" y="599.9405808224604" height="0" width="70.81967213114753"/><rect x="7.868852459016409" y="599.7179125528914" height="0" width="70.81967213114753"/><rect x="86.55737704918033" y="599.8121851967787" height="0.06829629208039023" width="70.81967213114753"/><rect x="243.93442622950818" y="599.9754596208511" height="0" width="70.81967213114753"/><rect x="165.24590163934425" y="600" height="0" width="70.81967213114753"/><rect x="401.311475409836" y="600" height="0" width="70.81967213114753"/></g><g class="layer" style="fill: rgb(102, 102, 102);"><rect x="322.6229508196721" y="599.9405808224604" height="0" width="70.81967213114753"/><rect x="7.868852459016409" y="599.7179125528914" height="0" width="70.81967213114753"/><rect x="86.55737704918033" y="599.8121851967787" height="0" width="70.81967213114753"/><rect x="243.93442622950818" y="599.9263788625534" height="0.04908075829769132" width="70.81967213114753"/><rect x="165.24590163934425" y="600" height="0" width="70.81967213114753"/><rect x="401.311475409836" y="600" height="0" width="70.81967213114753"/></g><g class="layer" style="fill: rgb(255, 255, 153);"><rect x="322.6229508196721" y="599.9405808224604" height="0" width="70.81967213114753"/><rect x="7.868852459016409" y="600" height="0" width="70.81967213114753"/><rect x="86.55737704918033" y="599.9487777809396" height="0.05122221906037794" width="70.81967213114753"/><rect x="243.93442622950818" y="599.9754596208511" height="0" width="70.81967213114753"/><rect x="165.24590163934425" y="600" height="0" width="70.81967213114753"/><rect x="401.311475409836" y="600" height="0" width="70.81967213114753"/></g><g class="layer" style="fill: rgb(191, 91, 23);"><rect x="322.6229508196721" y="599.9702904112303" height="0.02970958876971963" width="70.81967213114753"/><rect x="7.868852459016409" y="600" height="0" width="70.81967213114753"/><rect x="86.55737704918033" y="600" height="0" width="70.81967213114753"/><rect x="243.93442622950818" y="600" height="0" width="70.81967213114753"/><rect x="165.24590163934425" y="600" height="0" width="70.81967213114753"/><rect x="401.311475409836" y="600" height="0" width="70.81967213114753"/></g><g class="layer" style="fill: rgb(240, 2, 127);"><rect x="322.6229508196721" y="599.9405808224604" height="0.029709588769833317" width="70.81967213114753"/><rect x="7.868852459016409" y="600" height="0" width="70.81967213114753"/><rect x="86.55737704918033" y="600" height="0" width="70.81967213114753"/><rect x="243.93442622950818" y="600" height="0" width="70.81967213114753"/><rect x="165.24590163934425" y="600" height="0" width="70.81967213114753"/><rect x="401.311475409836" y="600" height="0" width="70.81967213114753"/></g><g class="layer" style="fill: rgb(56, 108, 176);"><rect x="322.6229508196721" y="599.9405808224604" height="0" width="70.81967213114753"/><rect x="7.868852459016409" y="600" height="0" width="70.81967213114753"/><rect x="86.55737704918033" y="600" height="0" width="70.81967213114753"/><rect x="243.93442622950818" y="599.9754596208511" height="0.024540379148902502" width="70.81967213114753"/><rect x="165.24590163934425" y="600" height="0" width="70.81967213114753"/><rect x="401.311475409836" y="600" height="0" width="70.81967213114753"/></g></g></svg>