<?xml version="1.0" standalone="no"?>
<svg xmlns="http://www.w3.org/2000/svg" width="540" height="730.046875"><g transform="translate(60,20)"><g class="x axis" transform="translate(0,600)" fill="none" font-size="10" font-family="sans-serif" text-anchor="middle"><path class="domain" stroke="#000" d="M0.5,6V0.5H480.5V6"/><g class="tick" opacity="1" transform="translate(43.27868852459017,0)"><line stroke="#000" y2="6"/><text fill="#000" y="9" dy="-0.5em" dx="-.8em" style="text-anchor: end;" transform="rotate(-90)">SRR5740374</text></g><g class="tick" opacity="1" transform="translate(121.96721311475409,0)"><line stroke="#000" y2="6"/><text fill="#000" y="9" dy="-0.5em" dx="-.8em" style="text-anchor: end;" transform="rotate(-90)">SRR5740364</text></g><g class="tick" opacity="1" transform="translate(200.655737704918,0)"><line stroke="#000" y2="6"/><text fill="#000" y="9" dy="-0.5em" dx="-.8em" style="text-anchor: end;" transform="rotate(-90)">SRR5740362</text></g><g class="tick" opacity="1" transform="translate(279.34426229508193,0)"><line stroke="#000" y2="6"/><text fill="#000" y="9" dy="-0.5em" dx="-.8em" style="text-anchor: end;" transform="rotate(-90)">SRR5740340</text></g><g class="tick" opacity="1" transform="translate(358.03278688524586,0)"><line stroke="#000" y2="6"/><text fill="#000" y="9" dy="-0.5em" dx="-.8em" style="text-anchor: end;" transform="rotate(-90)">SRR5740341</text></g><g class="tick" opacity="1" transform="translate(436.7213114754098,0)"><line stroke="#000" y2="6"/><text fill="#000" y="9" dy="-0.5em" dx="-.8em" style="text-anchor: end;" transform="rotate(-90)">SRR5740352</text></g></g><g class="y axis" fill="none" font-size="10" font-family="sans-serif" text-anchor="end"><path class="domain" stroke="#000" d="M-6,600.5H0.5V0.5H-6"/><g class="tick" opacity="1" transform="translate(0,600.5)"><line stroke="#000" x2="-6"/><text fill="#000" x="-9" dy="0.32em">0%</text></g><g class="tick" opacity="1" transform="translate(0,540.5)"><line stroke="#000" x2="-6"/><text fill="#000" x="-9" dy="0.32em">10%</text></g><g class="tick" opacity="1" transform="translate(0,480.5)"><line stroke="#000" x2="-6"/><text fill="#000" x="-9" dy="0.32em">20%</text></g><g class="tick" opacity="1" transform="translate(0,420.5)"><line stroke="#000" x2="-6"/><text fill="#000" x="-9" dy="0.32em">30%</text></g><g class="tick" opacity="1" transform="translate(0,360.5)"><line stroke="#000" x2="-6"/><text fill="#000" x="-9" dy="0.32em">40%</text></g><g class="tick" opacity="1" transform="translate(0,300.5)"><line stroke="#000" x2="-6"/><text fill="#000" x="-9" dy="0.32em">50%</text></g><g class="tick" opacity="1" transform="translate(0,240.5)"><line stroke="#000" x2="-6"/><text fill="#000" x="-9" dy="0.32em">60%</text></g><g class="tick" opacity="1" transform="translate(0,180.5)"><line stroke="#000" x2="-6"/><text fill="#000" x="-9" dy="0.32em">70%</text></g><g class="tick" opacity="1" transform="translate(0,120.5)"><line stroke="#000" x2="-6"/><text fill="#000" x="-9" dy="0.32em">80%</text></g><g class="tick" opacity="1" transform="translate(0,60.5)"><line stroke="#000" x2="-6"/><text fill="#000" x="-9" dy="0.32em">90%</text></g><g class="tick" opacity="1" transform="translate(0,0.5)"><line stroke="#000" x2="-6"/><text fill="#000" x="-9" dy="0.32em">100%</text></g></g><text id="y-label" text-anchor="middle" style="font: 12px sans-serif;" transform="translate(-30,300)rotate(-90)">Relative Frequency</text><text id="x-label" text-anchor="middle" style="font: 12px sans-serif;" transform="translate(240,690.046875)">Sample</text><g class="layer" style="fill: rgb(127, 201, 127);"><rect x="243.93442622950818" y="0" height="598.2067814609725" width="70.81967213114753"/><rect x="322.6229508196721" y="0" height="598.2469978429542" width="70.81967213114753"/><rect x="401.311475409836" y="0" height="599.4384928548018" width="70.81967213114753"/><rect x="165.24590163934425" y="0" height="592.2243047464667" width="70.81967213114753"/><rect x="86.55737704918033" y="0" height="563.4573088146449" width="70.81967213114753"/><rect x="7.868852459016409" y="1.1368683772161603e-13" height="75.15952948412382" width="70.81967213114753"/></g><g class="layer" style="fill: rgb(190, 174, 212);"><rect x="243.93442622950818" y="598.2067814609725" height="1.2902981112038105" width="70.81967213114753"/><rect x="322.6229508196721" y="598.2469978429542" height="0" width="70.81967213114753"/><rect x="401.311475409836" y="599.4384928548018" height="0.29852278605483207" width="70.81967213114753"/><rect x="165.24590163934425" y="592.2243047464667" height="1.9553214122892086" width="70.81967213114753"/><rect x="86.55737704918033" y="563.4573088146449" height="21.94835912481392" width="70.81967213114753"/><rect x="7.868852459016409" y="75.15952948412394" height="243.4381486891674" width="70.81967213114753"/></g><g class="layer" style="fill: rgb(253, 192, 134);"><rect x="243.93442622950818" y="599.4970795721763" height="0" width="70.81967213114753"/><rect x="322.6229508196721" y="598.2469978429542" height="0" width="70.81967213114753"/><rect x="401.311475409836" y="599.7370156408566" height="0.13504602226282714" width="70.81967213114753"/><rect x="165.24590163934425" y="594.1796261587559" height="2.4821437617141555" width="70.81967213114753"/><rect x="86.55737704918033" y="585.4056679394588" height="13.49738794625057" width="70.81967213114753"/><rect x="7.868852459016409" y="318.59767817329134" height="279.03436611055577" width="70.81967213114753"/></g><g class="layer" style="fill: rgb(255, 255, 153);"><rect x="243.93442622950818" y="599.4970795721763" height="0.5029204278237103" width="70.81967213114753"/><rect x="322.6229508196721" y="598.2469978429542" height="1.7530021570457848" width="70.81967213114753"/><rect x="401.311475409836" y="599.8720616631194" height="0" width="70.81967213114753"/><rect x="165.24590163934425" y="596.6617699204701" height="0" width="70.81967213114753"/><rect x="86.55737704918033" y="598.9030558857094" height="0.1350449557550064" width="70.81967213114753"/><rect x="7.868852459016409" y="597.6320442838471" height="0" width="70.81967213114753"/></g><g class="layer" style="fill: rgb(56, 108, 176);"><rect x="243.93442622950818" y="600" height="0" width="70.81967213114753"/><rect x="322.6229508196721" y="600" height="0" width="70.81967213114753"/><rect x="401.311475409836" y="599.8720616631194" height="0.04027688383280292" width="70.81967213114753"/><rect x="165.24590163934425" y="596.6617699204701" height="0.09624639076037056" width="70.81967213114753"/><rect x="86.55737704918033" y="599.0381008414644" height="0.9310994317844461" width="70.81967213114753"/><rect x="7.868852459016409" y="597.6320442838471" height="0" width="70.81967213114753"/></g><g class="layer" style="fill: rgb(240, 2, 127);"><rect x="243.93442622950818" y="600" height="0" width="70.81967213114753"/><rect x="322.6229508196721" y="600" height="0" width="70.81967213114753"/><rect x="401.311475409836" y="599.9123385469522" height="0" width="70.81967213114753"/><rect x="165.24590163934425" y="596.7580163112304" height="1.8134846259055166" width="70.81967213114753"/><rect x="86.55737704918033" y="599.9692002732488" height="0" width="70.81967213114753"/><rect x="7.868852459016409" y="597.6320442838471" height="0" width="70.81967213114753"/></g><g class="layer" style="fill: rgb(191, 91, 23);"><rect x="243.93442622950818" y="600" height="0" width="70.81967213114753"/><rect x="322.6229508196721" y="600" height="0" width="70.81967213114753"/><rect x="401.311475409836" y="599.9123385469522" height="0" width="70.81967213114753"/><rect x="165.24590163934425" y="598.571500937136" height="0.20262398054808273" width="70.81967213114753"/><rect x="86.55737704918033" y="599.9692002732488" height="0.030799726751183698" width="70.81967213114753"/><rect x="7.868852459016409" y="597.6320442838471" height="1.5837625893750555" width="70.81967213114753"/></g><g class="layer" style="fill: rgb(102, 102, 102);"><rect x="243.93442622950818" y="600" height="0" width="70.81967213114753"/><rect x="322.6229508196721" y="600" height="0" width="70.81967213114753"/><rect x="401.311475409836" y="599.9123385469522" height="0" width="70.81967213114753"/><rect x="165.24590163934425" y="598.774124917684" height="0.4001823615824378" width="70.81967213114753"/><rect x="86.55737704918033" y="600" height="0" width="70.81967213114753"/><rect x="7.868852459016409" y="599.2158068732222" height="0" width="70.81967213114753"/></g><g class="layer" style="fill: rgb(127, 201, 127);"><rect x="243.93442622950818" y="600" height="0" width="70.81967213114753"/><rect x="322.6229508196721" y="600" height="0" width="70.81967213114753"/><rect x="401.311475409836" y="599.9123385469522" height="0" width="70.81967213114753"/><rect x="165.24590163934425" y="599.1743072792665" height="0.11144318930143982" width="70.81967213114753"/><rect x="86.55737704918033" y="600" height="0" width="70.81967213114753"/><rect x="7.868852459016409" y="599.2158068732222" height="0.7380641193203701" width="70.81967213114753"/></g><g class="layer" style="fill: rgb(190, 174, 212);"><rect x="243.93442622950818" y="600" height="0" width="70.81967213114753"/><rect x="322.6229508196721" y="600" height="0" width="70.81967213114753"/><rect x="401.311475409836" y="599.9123385469522" height="0" width="70.81967213114753"/><rect x="165.24590163934425" y="599.2857504685679" height="0.18236158249328582" width="70.81967213114753"/><rect x="86.55737704918033" y="600" height="0" width="70.81967213114753"/><rect x="7.868852459016409" y="599.9538709925425" height="0" width="70.81967213114753"/></g><g class="layer" style="fill: rgb(255, 255, 153);"><rect x="243.93442622950818" y="600" height="0" width="70.81967213114753"/><rect x="322.6229508196721" y="600" height="0" width="70.81967213114753"/><rect x="401.311475409836" y="599.981046172314" height="0" width="70.81967213114753"/><rect x="165.24590163934425" y="599.4681120510612" height="0.10637758978782585" width="70.81967213114753"/><rect x="86.55737704918033" y="600" height="0" width="70.81967213114753"/><rect x="7.868852459016409" y="599.9538709925425" height="0" width="70.81967213114753"/></g><g class="layer" style="fill: rgb(56, 108, 176);"><rect x="243.93442622950818" y="600" height="0" width="70.81967213114753"/><rect x="322.6229508196721" y="600" height="0" width="70.81967213114753"/><rect x="401.311475409836" y="599.981046172314" height="0" width="70.81967213114753"/><rect x="165.24590163934425" y="599.574489640849" height="0.09624639076025687" width="70.81967213114753"/><rect x="86.55737704918033" y="600" height="0" width="70.81967213114753"/><rect x="7.868852459016409" y="599.9538709925425" height="0" width="70.81967213114753"/></g><g class="layer" style="fill: rgb(253, 192, 134);"><rect x="243.93442622950818" y="600" height="0" width="70.81967213114753"/><rect x="322.6229508196721" y="600" height="0" width="70.81967213114753"/><rect x="401.311475409836" y="599.9123385469522" height="0.06870762536175334" width="70.81967213114753"/><rect x="165.24590163934425" y="599.4681120510612" height="0" width="70.81967213114753"/><rect x="86.55737704918033" y="600" height="0" width="70.81967213114753"/><rect x="7.868852459016409" y="599.9538709925425" height="0" width="70.81967213114753"/></g><g class="layer" style="fill: rgb(240, 2, 127);"><rect x="243.93442622950818" y="600" height="0" width="70.81967213114753"/><rect x="322.6229508196721" y="600" height="0" width="70.81967213114753"/><rect x="401.311475409836" y="599.981046172314" height="0.018953827686004843" width="70.81967213114753"/><rect x="165.24590163934425" y="599.6707360316093" height="0.040524796109707495" width="70.81967213114753"/><rect x="86.55737704918033" y="600" height="0" width="70.81967213114753"/><rect x="7.868852459016409" y="599.9538709925425" height="0" width="70.81967213114753"/></g><g class="layer" style="fill: rgb(191, 91, 23);"><rect x="243.93442622950818" y="600" height="0" width="70.81967213114753"/><rect x="322.6229508196721" y="600" height="0" width="70.81967213114753"/><rect x="401.311475409836" y="600" height="0" width="70.81967213114753"/><rect x="165.24590163934425" y="599.711260827719" height="0.06585279367811836" width="70.81967213114753"/><rect x="86.55737704918033" y="600" height="0" width="70.81967213114753"/><rect x="7.868852459016409" y="599.9538709925425" height="0" width="70.81967213114753"/></g><g class="layer" style="fill: rgb(102, 102, 102);"><rect x="243.93442622950818" y="600" height="0" width="70.81967213114753"/><rect x="322.6229508196721" y="600" height="0" width="70.81967213114753"/><rect x="401.311475409836" y="600" height="0" width="70.81967213114753"/><rect x="165.24590163934425" y="599.7771136213971" height="0.050655995137049104" width="70.81967213114753"/><rect x="86.55737704918033" y="600" height="0" width="70.81967213114753"/><rect x="7.868852459016409" y="599.9538709925425" height="0" width="70.81967213114753"/></g><g class="layer" style="fill: rgb(127, 201, 127);"><rect x="243.93442622950818" y="600" height="0" width="70.81967213114753"/><rect x="322.6229508196721" y="600" height="0" width="70.81967213114753"/><rect x="401.311475409836" y="600" height="0" width="70.81967213114753"/><rect x="165.24590163934425" y="599.8277696165342" height="0.045590395623321456" width="70.81967213114753"/><rect x="86.55737704918033" y="600" height="0" width="70.81967213114753"/><rect x="7.868852459016409" y="599.9538709925425" height="0" width="70.81967213114753"/></g><g class="layer" style="fill: rgb(253, 192, 134);"><rect x="243.93442622950818" y="600" height="0" width="70.81967213114753"/><rect x="322.6229508196721" y="600" height="0" width="70.81967213114753"/><rect x="401.311475409836" y="600" height="0" width="70.81967213114753"/><rect x="165.24590163934425" y="599.9138848082671" height="0.04052479610959381" width="70.81967213114753"/><rect x="86.55737704918033" y="600" height="0" width="70.81967213114753"/><rect x="7.868852459016409" y="599.9538709925425" height="0" width="70.81967213114753"/></g><g class="layer" style="fill: rgb(190, 174, 212);"><rect x="243.93442622950818" y="600" height="0" width="70.81967213114753"/><rect x="322.6229508196721" y="600" height="0" width="70.81967213114753"/><rect x="401.311475409836" y="600" height="0" width="70.81967213114753"/><rect x="165.24590163934425" y="599.8733600121575" height="0.04052479610959381" width="70.81967213114753"/><rect x="86.55737704918033" y="600" height="0" width="70.81967213114753"/><rect x="7.868852459016409" y="599.9538709925425" height="0" width="70.81967213114753"/></g><g class="layer" style="fill: rgb(255, 255, 153);"><rect x="243.93442622950818" y="600" height="0" width="70.81967213114753"/><rect x="322.6229508196721" y="600" height="0" width="70.81967213114753"/><rect x="401.311475409836" y="600" height="0" width="70.81967213114753"/><rect x="165.24590163934425" y="599.9544096043767" height="0.025327997568524552" width="70.81967213114753"/><rect x="86.55737704918033" y="600" height="0" width="70.81967213114753"/><rect x="7.868852459016409" y="599.9538709925425" height="0" width="70.81967213114753"/></g><g class="layer" style="fill: rgb(56, 108, 176);"><rect x="243.93442622950818" y="600" height="0" width="70.81967213114753"/><rect x="322.6229508196721" y="600" height="0" width="70.81967213114753"/><rect x="401.311475409836" y="600" height="0" width="70.81967213114753"/><rect x="165.24590163934425" y="599.9797376019452" height="0.020262398054796904" width="70.81967213114753"/><rect x="86.55737704918033" y="600" height="0" width="70.81967213114753"/><rect x="7.868852459016409" y="599.9538709925425" height="0" width="70.81967213114753"/></g><g class="layer" style="fill: rgb(240, 2, 127);"><rect x="243.93442622950818" y="600" height="0" width="70.81967213114753"/><rect x="322.6229508196721" y="600" height="0" width="70.81967213114753"/><rect x="401.311475409836" y="600" height="0" width="70.81967213114753"/><rect x="165.24590163934425" y="600" height="0" width="70.81967213114753"/><rect x="86.55737704918033" y="600" height="0" width="70.81967213114753"/><rect x="7.868852459016409" y="599.9538709925425" height="0.04612900745746629" width="70.81967213114753"/></g></g></svg>