<?xml version="1.0" standalone="no"?>
<svg xmlns="http://www.w3.org/2000/svg" width="1410" height="734.875"><g transform="translate(60,20)"><g class="x axis" transform="translate(0,600)" fill="none" font-size="10" font-family="sans-serif" text-anchor="middle"><path class="domain" stroke="#000" d="M0.5,6V0.5H1350.5V6"/><g class="tick" opacity="1" transform="translate(29.581673306772895,0)"><line stroke="#000" y2="6"/><text fill="#000" y="9" dy="-0.5em" dx="-.8em" style="text-anchor: end;" transform="rotate(-90)">SRR11038217</text></g><g class="tick" opacity="1" transform="translate(83.36653386454182,0)"><line stroke="#000" y2="6"/><text fill="#000" y="9" dy="-0.5em" dx="-.8em" style="text-anchor: end;" transform="rotate(-90)">SRR11038225</text></g><g class="tick" opacity="1" transform="translate(137.15139442231074,0)"><line stroke="#000" y2="6"/><text fill="#000" y="9" dy="-0.5em" dx="-.8em" style="text-anchor: end;" transform="rotate(-90)">SRR11038235</text></g><g class="tick" opacity="1" transform="translate(190.9362549800797,0)"><line stroke="#000" y2="6"/><text fill="#000" y="9" dy="-0.5em" dx="-.8em" style="text-anchor: end;" transform="rotate(-90)">SRR11038234</text></g><g class="tick" opacity="1" transform="translate(244.72111553784862,0)"><line stroke="#000" y2="6"/><text fill="#000" y="9" dy="-0.5em" dx="-.8em" style="text-anchor: end;" transform="rotate(-90)">SRR11038226</text></g><g class="tick" opacity="1" transform="translate(298.50597609561754,0)"><line stroke="#000" y2="6"/><text fill="#000" y="9" dy="-0.5em" dx="-.8em" style="text-anchor: end;" transform="rotate(-90)">SRR11038224</text></g><g class="tick" opacity="1" transform="translate(352.29083665338646,0)"><line stroke="#000" y2="6"/><text fill="#000" y="9" dy="-0.5em" dx="-.8em" style="text-anchor: end;" transform="rotate(-90)">SRR11038216</text></g><g class="tick" opacity="1" transform="translate(406.0756972111554,0)"><line stroke="#000" y2="6"/><text fill="#000" y="9" dy="-0.5em" dx="-.8em" style="text-anchor: end;" transform="rotate(-90)">SRR11038230</text></g><g class="tick" opacity="1" transform="translate(459.8605577689243,0)"><line stroke="#000" y2="6"/><text fill="#000" y="9" dy="-0.5em" dx="-.8em" style="text-anchor: end;" transform="rotate(-90)">SRR11038223</text></g><g class="tick" opacity="1" transform="translate(513.6454183266933,0)"><line stroke="#000" y2="6"/><text fill="#000" y="9" dy="-0.5em" dx="-.8em" style="text-anchor: end;" transform="rotate(-90)">SRR11038222</text></g><g class="tick" opacity="1" transform="translate(567.4302788844623,0)"><line stroke="#000" y2="6"/><text fill="#000" y="9" dy="-0.5em" dx="-.8em" style="text-anchor: end;" transform="rotate(-90)">SRR11038220</text></g><g class="tick" opacity="1" transform="translate(621.2151394422311,0)"><line stroke="#000" y2="6"/><text fill="#000" y="9" dy="-0.5em" dx="-.8em" style="text-anchor: end;" transform="rotate(-90)">SRR11038213</text></g><g class="tick" opacity="1" transform="translate(675.0000000000001,0)"><line stroke="#000" y2="6"/><text fill="#000" y="9" dy="-0.5em" dx="-.8em" style="text-anchor: end;" transform="rotate(-90)">SRR11038211</text></g><g class="tick" opacity="1" transform="translate(728.784860557769,0)"><line stroke="#000" y2="6"/><text fill="#000" y="9" dy="-0.5em" dx="-.8em" style="text-anchor: end;" transform="rotate(-90)">SRR11038229</text></g><g class="tick" opacity="1" transform="translate(782.569721115538,0)"><line stroke="#000" y2="6"/><text fill="#000" y="9" dy="-0.5em" dx="-.8em" style="text-anchor: end;" transform="rotate(-90)">SRR11038212</text></g><g class="tick" opacity="1" transform="translate(836.3545816733068,0)"><line stroke="#000" y2="6"/><text fill="#000" y="9" dy="-0.5em" dx="-.8em" style="text-anchor: end;" transform="rotate(-90)">SRR11038219</text></g><g class="tick" opacity="1" transform="translate(890.1394422310758,0)"><line stroke="#000" y2="6"/><text fill="#000" y="9" dy="-0.5em" dx="-.8em" style="text-anchor: end;" transform="rotate(-90)">SRR11038233</text></g><g class="tick" opacity="1" transform="translate(943.9243027888448,0)"><line stroke="#000" y2="6"/><text fill="#000" y="9" dy="-0.5em" dx="-.8em" style="text-anchor: end;" transform="rotate(-90)">SRR11038218</text></g><g class="tick" opacity="1" transform="translate(997.7091633466136,0)"><line stroke="#000" y2="6"/><text fill="#000" y="9" dy="-0.5em" dx="-.8em" style="text-anchor: end;" transform="rotate(-90)">SRR11038227</text></g><g class="tick" opacity="1" transform="translate(1051.4940239043826,0)"><line stroke="#000" y2="6"/><text fill="#000" y="9" dy="-0.5em" dx="-.8em" style="text-anchor: end;" transform="rotate(-90)">SRR11038221</text></g><g class="tick" opacity="1" transform="translate(1105.2788844621516,0)"><line stroke="#000" y2="6"/><text fill="#000" y="9" dy="-0.5em" dx="-.8em" style="text-anchor: end;" transform="rotate(-90)">SRR11038232</text></g><g class="tick" opacity="1" transform="translate(1159.0637450199204,0)"><line stroke="#000" y2="6"/><text fill="#000" y="9" dy="-0.5em" dx="-.8em" style="text-anchor: end;" transform="rotate(-90)">SRR11038231</text></g><g class="tick" opacity="1" transform="translate(1212.8486055776893,0)"><line stroke="#000" y2="6"/><text fill="#000" y="9" dy="-0.5em" dx="-.8em" style="text-anchor: end;" transform="rotate(-90)">SRR11038228</text></g><g class="tick" opacity="1" transform="translate(1266.6334661354583,0)"><line stroke="#000" y2="6"/><text fill="#000" y="9" dy="-0.5em" dx="-.8em" style="text-anchor: end;" transform="rotate(-90)">SRR11038214</text></g><g class="tick" opacity="1" transform="translate(1320.4183266932273,0)"><line stroke="#000" y2="6"/><text fill="#000" y="9" dy="-0.5em" dx="-.8em" style="text-anchor: end;" transform="rotate(-90)">SRR11038215</text></g></g><g class="y axis" fill="none" font-size="10" font-family="sans-serif" text-anchor="end"><path class="domain" stroke="#000" d="M-6,600.5H0.5V0.5H-6"/><g class="tick" opacity="1" transform="translate(0,600.5)"><line stroke="#000" x2="-6"/><text fill="#000" x="-9" dy="0.32em">0%</text></g><g class="tick" opacity="1" transform="translate(0,540.5)"><line stroke="#000" x2="-6"/><text fill="#000" x="-9" dy="0.32em">10%</text></g><g class="tick" opacity="1" transform="translate(0,480.5)"><line stroke="#000" x2="-6"/><text fill="#000" x="-9" dy="0.32em">20%</text></g><g class="tick" opacity="1" transform="translate(0,420.5)"><line stroke="#000" x2="-6"/><text fill="#000" x="-9" dy="0.32em">30%</text></g><g class="tick" opacity="1" transform="translate(0,360.5)"><line stroke="#000" x2="-6"/><text fill="#000" x="-9" dy="0.32em">40%</text></g><g class="tick" opacity="1" transform="translate(0,300.5)"><line stroke="#000" x2="-6"/><text fill="#000" x="-9" dy="0.32em">50%</text></g><g class="tick" opacity="1" transform="translate(0,240.5)"><line stroke="#000" x2="-6"/><text fill="#000" x="-9" dy="0.32em">60%</text></g><g class="tick" opacity="1" transform="translate(0,180.5)"><line stroke="#000" x2="-6"/><text fill="#000" x="-9" dy="0.32em">70%</text></g><g class="tick" opacity="1" transform="translate(0,120.5)"><line stroke="#000" x2="-6"/><text fill="#000" x="-9" dy="0.32em">80%</text></g><g class="tick" opacity="1" transform="translate(0,60.5)"><line stroke="#000" x2="-6"/><text fill="#000" x="-9" dy="0.32em">90%</text></g><g class="tick" opacity="1" transform="translate(0,0.5)"><line stroke="#000" x2="-6"/><text fill="#000" x="-9" dy="0.32em">100%</text></g></g><text id="y-label" text-anchor="middle" style="font: 12px sans-serif;" transform="translate(-30,300)rotate(-90)">Relative Frequency</text><text id="x-label" text-anchor="middle" style="font: 12px sans-serif;" transform="translate(675,694.875)">Sample</text><g class="layer" style="fill: rgb(127, 201, 127);"><rect x="650.7968127490041" y="0" height="552.8672686312937" width="48.40637450199204"/><rect x="758.3665338645419" y="0" height="558.8537410995681" width="48.40637450199204"/><rect x="597.0119521912351" y="0" height="548.0285536338811" width="48.40637450199204"/><rect x="1242.4302788844623" y="0" height="594.2240014896192" width="48.40637450199204"/><rect x="1296.2151394422312" y="0" height="595.314640606448" width="48.40637450199204"/><rect x="328.08764940239047" y="0" height="511.5444191343963" width="48.40637450199204"/><rect x="5.378486055776875" y="0" height="464.87524925830456" width="48.40637450199204"/><rect x="919.7211155378487" y="0" height="561.6663028904618" width="48.40637450199204"/><rect x="812.1513944223108" y="0" height="559.4010549600137" width="48.40637450199204"/><rect x="543.2270916334662" y="0" height="547.1347091527375" width="48.40637450199204"/><rect x="1027.2908366533866" y="0" height="584.8691332866331" width="48.40637450199204"/><rect x="489.44223107569724" y="0" height="545.0826270183247" width="48.40637450199204"/><rect x="435.6573705179283" y="0" height="534.9758971612212" width="48.40637450199204"/><rect x="274.30278884462155" y="0" height="490.3815555486226" width="48.40637450199204"/><rect x="59.163346613545805" y="0" height="469.9839772120349" width="48.40637450199204"/><rect x="220.5179282868526" y="0" height="488.3806224848454" width="48.40637450199204"/><rect x="973.5059760956176" y="0" height="569.0080098582871" width="48.40637450199204"/><rect x="1188.6454183266933" y="0" height="593.2358754914525" width="48.40637450199204"/><rect x="704.5816733067729" y="0" height="554.7679324894515" width="48.40637450199204"/><rect x="381.8725099601594" y="0" height="529.8582860208325" width="48.40637450199204"/><rect x="1134.8605577689243" y="0" height="591.4793475614704" width="48.40637450199204"/><rect x="1081.0756972111556" y="0" height="588.8702290076336" width="48.40637450199204"/><rect x="865.9362549800798" y="0" height="560.8099705317798" width="48.40637450199204"/><rect x="166.73306772908367" y="0" height="487.0724122612172" width="48.40637450199204"/><rect x="112.94820717131473" y="0" height="477.9626927475648" width="48.40637450199204"/></g><g class="layer" style="fill: rgb(190, 174, 212);"><rect x="650.7968127490041" y="552.8672686312937" height="0.4395684902654011" width="48.40637450199204"/><rect x="758.3665338645419" y="558.8537410995681" height="0.8054161316680393" width="48.40637450199204"/><rect x="597.0119521912351" y="548.0285536338811" height="0.31619795908591186" width="48.40637450199204"/><rect x="1242.4302788844623" y="594.2240014896192" height="0.5586072060328888" width="48.40637450199204"/><rect x="1296.2151394422312" y="595.314640606448" height="0.6301945383140719" width="48.40637450199204"/><rect x="328.08764940239047" y="511.5444191343963" height="52.53758542141236" width="48.40637450199204"/><rect x="5.378486055776875" y="464.87524925830456" height="89.35363065998735" width="48.40637450199204"/><rect x="919.7211155378487" y="561.6663028904618" height="0.8418820741479749" width="48.40637450199204"/><rect x="812.1513944223108" y="559.4010549600137" height="0.6125574272587073" width="48.40637450199204"/><rect x="543.2270916334662" y="547.1347091527375" height="0.4210223285773509" width="48.40637450199204"/><rect x="1027.2908366533866" y="584.8691332866331" height="1.2991148188244779" width="48.40637450199204"/><rect x="489.44223107569724" y="545.0826270183247" height="3.8069984374260457" width="48.40637450199204"/><rect x="435.6573705179283" y="534.9758971612212" height="5.022912575135479" width="48.40637450199204"/><rect x="274.30278884462155" y="490.3815555486226" height="66.73322309924185" width="48.40637450199204"/><rect x="59.163346613545805" y="469.9839772120349" height="82.99804165924866" width="48.40637450199204"/><rect x="220.5179282868526" y="488.3806224848454" height="50.17064846416383" width="48.40637450199204"/><rect x="973.5059760956176" y="569.0080098582871" height="5.791743684534822" width="48.40637450199204"/><rect x="1188.6454183266933" y="593.2358754914525" height="2.932423919890539" width="48.40637450199204"/><rect x="704.5816733067729" y="554.7679324894515" height="1.0126582278480782" width="48.40637450199204"/><rect x="381.8725099601594" y="529.8582860208325" height="0.8315078903839321" width="48.40637450199204"/><rect x="1134.8605577689243" y="591.4793475614704" height="0.9737888501176712" width="48.40637450199204"/><rect x="1081.0756972111556" y="588.8702290076336" height="0.7480916030534672" width="48.40637450199204"/><rect x="865.9362549800798" y="560.8099705317798" height="0.9570412825434005" width="48.40637450199204"/><rect x="166.73306772908367" y="487.0724122612172" height="59.20924033762776" width="48.40637450199204"/><rect x="112.94820717131473" y="477.9626927475648" height="61.474149150135986" width="48.40637450199204"/></g><g class="layer" style="fill: rgb(255, 255, 153);"><rect x="650.7968127490041" y="572.6698291177494" height="8.066081796369986" width="48.40637450199204"/><rect x="758.3665338645419" y="575.2188630792576" height="8.007470526438624" width="48.40637450199204"/><rect x="597.0119521912351" y="551.2192784937479" height="22.047621328989635" width="48.40637450199204"/><rect x="1242.4302788844623" y="598.558793408435" height="0.18992645005118902" width="48.40637450199204"/><rect x="1296.2151394422312" y="598.6574116357658" height="0" width="48.40637450199204"/><rect x="328.08764940239047" y="564.9749430523918" height="13.047835990888302" width="48.40637450199204"/><rect x="5.378486055776875" y="554.7249647390692" height="15.728806964641763" width="48.40637450199204"/><rect x="919.7211155378487" y="584.116491534408" height="5.163543388107655" width="48.40637450199204"/><rect x="812.1513944223108" y="585.7240088480518" height="2.1609664794963237" width="48.40637450199204"/><rect x="543.2270916334662" y="571.5755950988682" height="9.705104445923894" width="48.40637450199204"/><rect x="1027.2908366533866" y="593.5808444246322" height="1.146277781315689" width="48.40637450199204"/><rect x="489.44223107569724" y="573.9334248780718" height="1.0227756996069957" width="48.40637450199204"/><rect x="435.6573705179283" y="540.5344283758852" height="16.461346188180755" width="48.40637450199204"/><rect x="274.30278884462155" y="589.8730228059776" height="2.0403706361339573" width="48.40637450199204"/><rect x="59.163346613545805" y="586.7188890867011" height="1.5132633078155777" width="48.40637450199204"/><rect x="220.5179282868526" y="584.6722021292853" height="2.1700371860832774" width="48.40637450199204"/><rect x="973.5059760956176" y="583.0252618607517" height="0.6469500924214344" width="48.40637450199204"/><rect x="1188.6454183266933" y="598.7357994656472" height="0.2997588895888157" width="48.40637450199204"/><rect x="704.5816733067729" y="562.2616033755274" height="2.1940928270041695" width="48.40637450199204"/><rect x="381.8725099601594" y="540.131431892351" height="4.07707094639909" width="48.40637450199204"/><rect x="1134.8605577689243" y="593.0860991641646" height="2.1910249127647603" width="48.40637450199204"/><rect x="1081.0756972111556" y="598.1068702290077" height="0.366412213740432" width="48.40637450199204"/><rect x="865.9362549800798" y="571.7105085295628" height="0.6001784314255474" width="48.40637450199204"/><rect x="166.73306772908367" y="548.4495779653487" height="37.35228787205688" width="48.40637450199204"/><rect x="112.94820717131473" y="542.9033403005087" height="17.415309382024702" width="48.40637450199204"/></g><g class="layer" style="fill: rgb(56, 108, 176);"><rect x="650.7968127490041" y="580.7359109141194" height="5.406692430264229" width="48.40637450199204"/><rect x="758.3665338645419" y="583.2263336056963" height="5.357768180226458" width="48.40637450199204"/><rect x="597.0119521912351" y="573.2668998227375" height="12.130503521295395" width="48.40637450199204"/><rect x="1242.4302788844623" y="598.7487198584862" height="0.3910250442230563" width="48.40637450199204"/><rect x="1296.2151394422312" y="598.6574116357658" height="0" width="48.40637450199204"/><rect x="328.08764940239047" y="578.0227790432801" height="9.858769931662891" width="48.40637450199204"/><rect x="5.378486055776875" y="570.4537717037109" height="10.286464666115421" width="48.40637450199204"/><rect x="919.7211155378487" y="589.2800349225157" height="4.078450936983472" width="48.40637450199204"/><rect x="812.1513944223108" y="587.8849753275481" height="3.7263910158243334" width="48.40637450199204"/><rect x="543.2270916334662" y="581.2806995447921" height="6.703970924269925" width="48.40637450199204"/><rect x="1027.2908366533866" y="594.7271222059479" height="0.6877666687894362" width="48.40637450199204"/><rect x="489.44223107569724" y="574.9562005776788" height="1.4347270230598497" width="48.40637450199204"/><rect x="435.6573705179283" y="556.995774564066" height="19.353686841635408" width="48.40637450199204"/><rect x="274.30278884462155" y="591.9133934421116" height="4.661030168782872" width="48.40637450199204"/><rect x="59.163346613545805" y="588.2321523945167" height="6.907601922734557" width="48.40637450199204"/><rect x="220.5179282868526" y="586.8422393153686" height="7.136671590851165" width="48.40637450199204"/><rect x="973.5059760956176" y="583.6722119531731" height="2.0948860135551968" width="48.40637450199204"/><rect x="1188.6454183266933" y="599.035558355236" height="0.2085279231921504" width="48.40637450199204"/><rect x="704.5816733067729" y="564.4556962025316" height="1.7552742616034038" width="48.40637450199204"/><rect x="381.8725099601594" y="544.2085028387501" height="2.762752022888776" width="48.40637450199204"/><rect x="1134.8605577689243" y="595.2771240769293" height="0.29213665503527864" width="48.40637450199204"/><rect x="1081.0756972111556" y="598.4732824427481" height="0.61068702290072" width="48.40637450199204"/><rect x="865.9362549800798" y="572.3106869609884" height="2.5953661899483222" width="48.40637450199204"/><rect x="166.73306772908367" y="585.8018658374056" height="3.0919591292758923" width="48.40637450199204"/><rect x="112.94820717131473" y="560.3186496825334" height="7.997791536853697" width="48.40637450199204"/></g><g class="layer" style="fill: rgb(240, 2, 127);"><rect x="650.7968127490041" y="586.1426033443836" height="6.604516566237521" width="48.40637450199204"/><rect x="758.3665338645419" y="588.5841017859227" height="4.529006653437591" width="48.40637450199204"/><rect x="597.0119521912351" y="585.3974033440329" height="0.20121688305471253" width="48.40637450199204"/><rect x="1242.4302788844623" y="599.1397449027093" height="0.2904757471371795" width="48.40637450199204"/><rect x="1296.2151394422312" y="598.6574116357658" height="0.4109964380309066" width="48.40637450199204"/><rect x="328.08764940239047" y="587.881548974943" height="0.7471526195899969" width="48.40637450199204"/><rect x="5.378486055776875" y="580.7402363698263" height="0.18967949029718056" width="48.40637450199204"/><rect x="919.7211155378487" y="593.3584858594992" height="1.8334320725889484" width="48.40637450199204"/><rect x="812.1513944223108" y="591.6113663433724" height="2.55232261357844" width="48.40637450199204"/><rect x="543.2270916334662" y="587.984670469062" height="3.3789740729412188" width="48.40637450199204"/><rect x="1027.2908366533866" y="595.4148888747374" height="1.0698592625612946" width="48.40637450199204"/><rect x="489.44223107569724" y="576.3909276007387" height="12.429565793834968" width="48.40637450199204"/><rect x="435.6573705179283" y="576.3494614057014" height="1.0950425519251894" width="48.40637450199204"/><rect x="274.30278884462155" y="596.5744236108944" height="1.1605777930303702" width="48.40637450199204"/><rect x="59.163346613545805" y="595.1397543172512" height="2.6170553676339523" width="48.40637450199204"/><rect x="220.5179282868526" y="593.9789109062198" height="3.316183587183559" width="48.40637450199204"/><rect x="973.5059760956176" y="585.7670979667283" height="5.206407886629677" width="48.40637450199204"/><rect x="1188.6454183266933" y="599.2440862784282" height="0.44312183678346173" width="48.40637450199204"/><rect x="704.5816733067729" y="566.210970464135" height="11.206751054852361" width="48.40637450199204"/><rect x="381.8725099601594" y="546.9712548616388" height="20.975457105816076" width="48.40637450199204"/><rect x="1134.8605577689243" y="595.5692607319646" height="0" width="48.40637450199204"/><rect x="1081.0756972111556" y="599.0839694656488" height="0.2900763358778704" width="48.40637450199204"/><rect x="865.9362549800798" y="574.9060531509367" height="9.92727567655254" width="48.40637450199204"/><rect x="166.73306772908367" y="588.8938249666814" height="4.0159928920479615" width="48.40637450199204"/><rect x="112.94820717131473" y="568.3164412193871" height="18.681232006940945" width="48.40637450199204"/></g><g class="layer" style="fill: rgb(253, 192, 134);"><rect x="650.7968127490041" y="553.306837121559" height="19.362991996190317" width="48.40637450199204"/><rect x="758.3665338645419" y="559.6591572312361" height="15.559705848021508" width="48.40637450199204"/><rect x="597.0119521912351" y="548.344751592967" height="2.874526900780893" width="48.40637450199204"/><rect x="1242.4302788844623" y="594.7826086956521" height="3.7761847127828787" width="48.40637450199204"/><rect x="1296.2151394422312" y="595.9448351447621" height="2.712576491003688" width="48.40637450199204"/><rect x="328.08764940239047" y="564.0820045558087" height="0.8929384965831559" width="48.40637450199204"/><rect x="5.378486055776875" y="554.2288799182919" height="0.4960848207772415" width="48.40637450199204"/><rect x="919.7211155378487" y="562.5081849646098" height="21.608306569798287" width="48.40637450199204"/><rect x="812.1513944223108" y="560.0136123872724" height="25.710396460779407" width="48.40637450199204"/><rect x="543.2270916334662" y="547.5557314813149" height="24.01986361755337" width="48.40637450199204"/><rect x="1027.2908366533866" y="586.1682481054576" height="7.412596319174668" width="48.40637450199204"/><rect x="489.44223107569724" y="548.8896254557508" height="25.043799422321058" width="48.40637450199204"/><rect x="435.6573705179283" y="539.9988097363566" height="0.5356186395285931" width="48.40637450199204"/><rect x="274.30278884462155" y="557.1147786478645" height="32.75824415811314" width="48.40637450199204"/><rect x="59.163346613545805" y="552.9820188712836" height="33.736870215417525" width="48.40637450199204"/><rect x="220.5179282868526" y="538.5512709490092" height="46.1209311802761" width="48.40637450199204"/><rect x="973.5059760956176" y="574.7997535428219" height="8.22550831792978" width="48.40637450199204"/><rect x="1188.6454183266933" y="596.168299411343" height="2.567500054304219" width="48.40637450199204"/><rect x="704.5816733067729" y="555.7805907172996" height="6.481012658227883" width="48.40637450199204"/><rect x="381.8725099601594" y="530.6897939112164" height="9.44163798113459" width="48.40637450199204"/><rect x="1134.8605577689243" y="592.453136411588" height="0.6329627525765318" width="48.40637450199204"/><rect x="1081.0756972111556" y="589.6183206106871" height="8.488549618320576" width="48.40637450199204"/><rect x="865.9362549800798" y="561.7670118143232" height="9.94349671523969" width="48.40637450199204"/><rect x="166.73306772908367" y="546.281652598845" height="2.1679253665037095" width="48.40637450199204"/><rect x="112.94820717131473" y="539.4368418977008" height="3.466498402807929" width="48.40637450199204"/></g><g class="layer" style="fill: rgb(191, 91, 23);"><rect x="650.7968127490041" y="592.7471199106211" height="1.1099104379201208" width="48.40637450199204"/><rect x="758.3665338645419" y="593.1131084393603" height="0.945488502392891" width="48.40637450199204"/><rect x="597.0119521912351" y="585.5986202270876" height="1.638480333445159" width="48.40637450199204"/><rect x="1242.4302788844623" y="599.4302206498464" height="0" width="48.40637450199204"/><rect x="1296.2151394422312" y="599.0684080737967" height="0" width="48.40637450199204"/><rect x="328.08764940239047" y="588.628701594533" height="5.047835990888416" width="48.40637450199204"/><rect x="5.378486055776875" y="580.9299158601235" height="8.477214143281003" width="48.40637450199204"/><rect x="919.7211155378487" y="595.1919179320881" height="0.9915499984409735" width="48.40637450199204"/><rect x="812.1513944223108" y="594.1636889569509" height="1.0549600136123445" width="48.40637450199204"/><rect x="543.2270916334662" y="591.3636445420033" height="1.1874988754746028" width="48.40637450199204"/><rect x="1027.2908366533866" y="596.4847481372987" height="0.6495574094121821" width="48.40637450199204"/><rect x="489.44223107569724" y="588.8204933945736" height="1.036980917657047" width="48.40637450199204"/><rect x="435.6573705179283" y="577.4445039576266" height="8.510385050288619" width="48.40637450199204"/><rect x="274.30278884462155" y="597.7350014039248" height="0.3369419399119806" width="48.40637450199204"/><rect x="59.163346613545805" y="597.7568096848852" height="0.3204557593021491" width="48.40637450199204"/><rect x="220.5179282868526" y="597.2950944934033" height="0.5043044164840467" width="48.40637450199204"/><rect x="973.5059760956176" y="590.973505853358" height="0" width="48.40637450199204"/><rect x="1188.6454183266933" y="599.6872081152117" height="0.09123096639666528" width="48.40637450199204"/><rect x="704.5816733067729" y="577.4177215189874" height="0" width="48.40637450199204"/><rect x="381.8725099601594" y="567.9467119674549" height="0.8315078903840458" width="48.40637450199204"/><rect x="1134.8605577689243" y="595.5692607319646" height="0" width="48.40637450199204"/><rect x="1081.0756972111556" y="599.3740458015267" height="0" width="48.40637450199204"/><rect x="865.9362549800798" y="584.8333288274893" height="0.437968044553827" width="48.40637450199204"/><rect x="166.73306772908367" y="592.9098178587294" height="1.5637494446913252" width="48.40637450199204"/><rect x="112.94820717131473" y="586.9976732263281" height="4.8270694482785075" width="48.40637450199204"/></g><g class="layer" style="fill: rgb(253, 192, 134);"><rect x="650.7968127490041" y="598.6703053169472" height="0" width="48.40637450199204"/><rect x="758.3665338645419" y="598.4008404342244" height="0" width="48.40637450199204"/><rect x="597.0119521912351" y="596.090643414938" height="0" width="48.40637450199204"/><rect x="1242.4302788844623" y="599.7542128293455" height="0" width="48.40637450199204"/><rect x="1296.2151394422312" y="599.4794045118275" height="0" width="48.40637450199204"/><rect x="328.08764940239047" y="595.9908883826879" height="3.535307517084334" width="48.40637450199204"/><rect x="5.378486055776875" y="592.1939594377706" height="6.799280190652212" width="48.40637450199204"/><rect x="919.7211155378487" y="599.008450001559" height="0" width="48.40637450199204"/><rect x="812.1513944223108" y="598.9960864386592" height="0" width="48.40637450199204"/><rect x="543.2270916334662" y="597.9704564673708" height="0" width="48.40637450199204"/><rect x="1027.2908366533866" y="599.0829777749475" height="0" width="48.40637450199204"/><rect x="489.44223107569724" y="595.1418154268669" height="0" width="48.40637450199204"/><rect x="435.6573705179283" y="592.037136225674" height="7.272510861155752" width="48.40637450199204"/><rect x="274.30278884462155" y="598.2965713037781" height="0" width="48.40637450199204"/><rect x="59.163346613545805" y="598.3443119102724" height="0" width="48.40637450199204"/><rect x="220.5179282868526" y="598.4106769904743" height="0" width="48.40637450199204"/><rect x="973.5059760956176" y="594.8243992606284" height="0" width="48.40637450199204"/><rect x="1188.6454183266933" y="599.8175380672068" height="0" width="48.40637450199204"/><rect x="704.5816733067729" y="596.8270042194093" height="0" width="48.40637450199204"/><rect x="381.8725099601594" y="595.091421163217" height="0" width="48.40637450199204"/><rect x="1134.8605577689243" y="596.3482918120587" height="0" width="48.40637450199204"/><rect x="1081.0756972111556" y="600" height="0" width="48.40637450199204"/><rect x="865.9362549800798" y="589.7807456270783" height="0" width="48.40637450199204"/><rect x="166.73306772908367" y="595.4331408262995" height="1.617059084851121" width="48.40637450199204"/><rect x="112.94820717131473" y="594.1791221358993" height="2.8986078794810055" width="48.40637450199204"/></g><g class="layer" style="fill: rgb(127, 201, 127);"><rect x="650.7968127490041" y="597.3955566951776" height="0.9121046173006562" width="48.40637450199204"/><rect x="758.3665338645419" y="597.7238239757207" height="0.3735263219330136" width="48.40637450199204"/><rect x="597.0119521912351" y="595.1995400756958" height="0.31619795908591186" width="48.40637450199204"/><rect x="1242.4302788844623" y="599.6648356763802" height="0.08937715296531223" width="48.40637450199204"/><rect x="1296.2151394422312" y="599.0684080737967" height="0.3287971504246343" width="48.40637450199204"/><rect x="328.08764940239047" y="594.004555808656" height="0.2551252847380283" width="48.40637450199204"/><rect x="5.378486055776875" y="590.3409367248674" height="0" width="48.40637450199204"/><rect x="919.7211155378487" y="598.3349443422406" height="0.35546132019578636" width="48.40637450199204"/><rect x="812.1513944223108" y="598.2814361068572" height="0.3573251659009884" width="48.40637450199204"/><rect x="543.2270916334662" y="596.7937530362187" height="0.5289767718022631" width="48.40637450199204"/><rect x="1027.2908366533866" y="598.7008851811755" height="0.38209259377197213" width="48.40637450199204"/><rect x="489.44223107569724" y="593.0394431554524" height="2.017140963113775" width="48.40637450199204"/><rect x="435.6573705179283" y="587.1689579241802" height="0.3213711837172468" width="48.40637450199204"/><rect x="274.30278884462155" y="598.1842573238074" height="0" width="48.40637450199204"/><rect x="59.163346613545805" y="598.2552964215773" height="0" width="48.40637450199204"/><rect x="220.5179282868526" y="598.1356018542102" height="0.168101472161311" width="48.40637450199204"/><rect x="973.5059760956176" y="590.973505853358" height="2.9574861367837" width="48.40637450199204"/><rect x="1188.6454183266933" y="599.7784390816083" height="0" width="48.40637450199204"/><rect x="704.5816733067729" y="577.4177215189874" height="11.713080168776287" width="48.40637450199204"/><rect x="381.8725099601594" y="568.778219857839" height="14.913496356564906" width="48.40637450199204"/><rect x="1134.8605577689243" y="595.5692607319646" height="0.194757770023557" width="48.40637450199204"/><rect x="1081.0756972111556" y="599.9389312977099" height="0.061068702290072" width="48.40637450199204"/><rect x="865.9362549800798" y="585.9850225742788" height="3.4388602016816776" width="48.40637450199204"/><rect x="166.73306772908367" y="594.6512661039538" height="0.390937361172746" width="48.40637450199204"/><rect x="112.94820717131473" y="592.297984777379" height="0.9583152581141121" width="48.40637450199204"/></g><g class="layer" style="fill: rgb(56, 108, 176);"><rect x="650.7968127490041" y="599.2307551420356" height="0.17582739610611497" width="48.40637450199204"/><rect x="758.3665338645419" y="598.8560756390802" height="0" width="48.40637450199204"/><rect x="597.0119521912351" y="598.3040291285392" height="0" width="48.40637450199204"/><rect x="1242.4302788844623" y="599.8212456940695" height="0.12289358532723327" width="48.40637450199204"/><rect x="1296.2151394422312" y="599.4794045118275" height="0.16439857521243084" width="48.40637450199204"/><rect x="328.08764940239047" y="600" height="0" width="48.40637450199204"/><rect x="5.378486055776875" y="599.8249112397257" height="0" width="48.40637450199204"/><rect x="919.7211155378487" y="599.008450001559" height="0" width="48.40637450199204"/><rect x="812.1513944223108" y="598.9960864386592" height="0" width="48.40637450199204"/><rect x="543.2270916334662" y="598.3698879073031" height="0" width="48.40637450199204"/><rect x="1027.2908366533866" y="599.0829777749475" height="0.3438833343947181" width="48.40637450199204"/><rect x="489.44223107569724" y="595.1418154268669" height="1.84667834651259" width="48.40637450199204"/><rect x="435.6573705179283" y="600" height="0" width="48.40637450199204"/><rect x="274.30278884462155" y="599.0078931769257" height="0" width="48.40637450199204"/><rect x="59.163346613545805" y="598.9852234288767" height="0" width="48.40637450199204"/><rect x="220.5179282868526" y="599.067800927105" height="0" width="48.40637450199204"/><rect x="973.5059760956176" y="594.8243992606284" height="2.218114602587889" width="48.40637450199204"/><rect x="1188.6454183266933" y="600" height="0" width="48.40637450199204"/><rect x="704.5816733067729" y="597.2995780590717" height="0.16877637130801304" width="48.40637450199204"/><rect x="381.8725099601594" y="595.6010550315168" height="0.3486968572578917" width="48.40637450199204"/><rect x="1134.8605577689243" y="599.4157266899294" height="0" width="48.40637450199204"/><rect x="1081.0756972111556" y="600" height="0" width="48.40637450199204"/><rect x="865.9362549800798" y="589.7807456270783" height="7.153478061045234" width="48.40637450199204"/><rect x="166.73306772908367" y="599.4135939582408" height="0.17769880053310771" width="48.40637450199204"/><rect x="112.94820717131473" y="598.2608352723114" height="0.3194384193714086" width="48.40637450199204"/></g><g class="layer" style="fill: rgb(102, 102, 102);"><rect x="650.7968127490041" y="593.8570303485412" height="3.5385263466363313" width="48.40637450199204"/><rect x="758.3665338645419" y="594.0585969417532" height="3.6652270339675397" width="48.40637450199204"/><rect x="597.0119521912351" y="587.2371005605328" height="7.962439515163055" width="48.40637450199204"/><rect x="1242.4302788844623" y="599.4302206498464" height="0.2346150265337883" width="48.40637450199204"/><rect x="1296.2151394422312" y="599.0684080737967" height="0" width="48.40637450199204"/><rect x="328.08764940239047" y="593.6765375854214" height="0.32801822323460783" width="48.40637450199204"/><rect x="5.378486055776875" y="589.4071300034045" height="0.9338067214629291" width="48.40637450199204"/><rect x="919.7211155378487" y="596.1834679305291" height="2.151476411711542" width="48.40637450199204"/><rect x="812.1513944223108" y="595.2186489705632" height="3.0627871362939914" width="48.40637450199204"/><rect x="543.2270916334662" y="592.5511434174779" height="4.2426096187408575" width="48.40637450199204"/><rect x="1027.2908366533866" y="597.1343055467108" height="1.5665796344646878" width="48.40637450199204"/><rect x="489.44223107569724" y="589.8574743122307" height="3.181968843221739" width="48.40637450199204"/><rect x="435.6573705179283" y="585.9548890079152" height="1.2140689162649778" width="48.40637450199204"/><rect x="274.30278884462155" y="598.0719433438368" height="0.11231397997062231" width="48.40637450199204"/><rect x="59.163346613545805" y="598.0772654441873" height="0.1780309773899944" width="48.40637450199204"/><rect x="220.5179282868526" y="597.7993989098874" height="0.33620294432284936" width="48.40637450199204"/><rect x="973.5059760956176" y="590.973505853358" height="0" width="48.40637450199204"/><rect x="1188.6454183266933" y="599.7784390816083" height="0" width="48.40637450199204"/><rect x="704.5816733067729" y="577.4177215189874" height="0" width="48.40637450199204"/><rect x="381.8725099601594" y="568.778219857839" height="0" width="48.40637450199204"/><rect x="1134.8605577689243" y="595.5692607319646" height="0" width="48.40637450199204"/><rect x="1081.0756972111556" y="599.3740458015267" height="0.5648854961832512" width="48.40637450199204"/><rect x="865.9362549800798" y="585.2712968720431" height="0.7137257022357062" width="48.40637450199204"/><rect x="166.73306772908367" y="594.4735673034207" height="0.17769880053310771" width="48.40637450199204"/><rect x="112.94820717131473" y="591.8247426746066" height="0.473242102772474" width="48.40637450199204"/></g><g class="layer" style="fill: rgb(190, 174, 212);"><rect x="650.7968127490041" y="598.3076613124782" height="0.3626440044689616" width="48.40637450199204"/><rect x="758.3665338645419" y="598.0973502976537" height="0.3034901365706446" width="48.40637450199204"/><rect x="597.0119521912351" y="595.5157380347817" height="0.574905380156224" width="48.40637450199204"/><rect x="1242.4302788844623" y="599.7542128293455" height="0" width="48.40637450199204"/><rect x="1296.2151394422312" y="599.3972052242214" height="0.08219928760615858" width="48.40637450199204"/><rect x="328.08764940239047" y="594.2596810933941" height="1.7312072892938204" width="48.40637450199204"/><rect x="5.378486055776875" y="590.3409367248674" height="1.8530227129031118" width="48.40637450199204"/><rect x="919.7211155378487" y="598.6904056624364" height="0.31804433912259356" width="48.40637450199204"/><rect x="812.1513944223108" y="598.6387612727582" height="0.3573251659009884" width="48.40637450199204"/><rect x="543.2270916334662" y="597.322729808021" height="0.6477266593498143" width="48.40637450199204"/><rect x="1027.2908366533866" y="599.0829777749475" height="0" width="48.40637450199204"/><rect x="489.44223107569724" y="595.0565841185662" height="0.08523130830064929" width="48.40637450199204"/><rect x="435.6573705179283" y="587.4903291078974" height="4.546807117776552" width="48.40637450199204"/><rect x="274.30278884462155" y="598.1842573238074" height="0.112313979970736" width="48.40637450199204"/><rect x="59.163346613545805" y="598.2552964215773" height="0.08901548869505405" width="48.40637450199204"/><rect x="220.5179282868526" y="598.3037033263715" height="0.1069736641027248" width="48.40637450199204"/><rect x="973.5059760956176" y="593.9309919901417" height="0.8934072704867049" width="48.40637450199204"/><rect x="1188.6454183266933" y="599.7784390816083" height="0.03909898559845715" width="48.40637450199204"/><rect x="704.5816733067729" y="589.1308016877637" height="7.6962025316456675" width="48.40637450199204"/><rect x="381.8725099601594" y="583.6917162144039" height="11.39970494881311" width="48.40637450199204"/><rect x="1134.8605577689243" y="595.7640185019882" height="0.5842733100705573" width="48.40637450199204"/><rect x="1081.0756972111556" y="600" height="0" width="48.40637450199204"/><rect x="865.9362549800798" y="589.4238827759605" height="0.3568628511178531" width="48.40637450199204"/><rect x="166.73306772908367" y="595.0422034651266" height="0.3909373611728597" width="48.40637450199204"/><rect x="112.94820717131473" y="593.2563000354932" height="0.9228221004061652" width="48.40637450199204"/></g><g class="layer" style="fill: rgb(240, 2, 127);"><rect x="650.7968127490041" y="599.4065825381417" height="0" width="48.40637450199204"/><rect x="758.3665338645419" y="598.8560756390802" height="0.070036185362369" width="48.40637450199204"/><rect x="597.0119521912351" y="598.3040291285392" height="0" width="48.40637450199204"/><rect x="1242.4302788844623" y="599.9441392793967" height="0" width="48.40637450199204"/><rect x="1296.2151394422312" y="599.6438030870399" height="0.3561969129600584" width="48.40637450199204"/><rect x="328.08764940239047" y="600" height="0" width="48.40637450199204"/><rect x="5.378486055776875" y="599.8249112397257" height="0" width="48.40637450199204"/><rect x="919.7211155378487" y="599.008450001559" height="0" width="48.40637450199204"/><rect x="812.1513944223108" y="598.9960864386592" height="0" width="48.40637450199204"/><rect x="543.2270916334662" y="598.3698879073031" height="0" width="48.40637450199204"/><rect x="1027.2908366533866" y="599.4268611093422" height="0.3438833343946044" width="48.40637450199204"/><rect x="489.44223107569724" y="596.9884937733794" height="1.960320090913342" width="48.40637450199204"/><rect x="435.6573705179283" y="600" height="0" width="48.40637450199204"/><rect x="274.30278884462155" y="599.0078931769257" height="0" width="48.40637450199204"/><rect x="59.163346613545805" y="598.9852234288767" height="0" width="48.40637450199204"/><rect x="220.5179282868526" y="599.067800927105" height="0" width="48.40637450199204"/><rect x="973.5059760956176" y="597.0425138632163" height="2.433764633394958" width="48.40637450199204"/><rect x="1188.6454183266933" y="600" height="0" width="48.40637450199204"/><rect x="704.5816733067729" y="597.4683544303797" height="0" width="48.40637450199204"/><rect x="381.8725099601594" y="595.9497518887747" height="0" width="48.40637450199204"/><rect x="1134.8605577689243" y="599.4157266899294" height="0" width="48.40637450199204"/><rect x="1081.0756972111556" y="600" height="0" width="48.40637450199204"/><rect x="865.9362549800798" y="596.9342236881236" height="2.3682716483277773" width="48.40637450199204"/><rect x="166.73306772908367" y="599.5912927587739" height="0" width="48.40637450199204"/><rect x="112.94820717131473" y="598.5802736916828" height="0.23662105138612333" width="48.40637450199204"/></g><g class="layer" style="fill: rgb(255, 255, 153);"><rect x="650.7968127490041" y="598.6703053169472" height="0.5604498250884262" width="48.40637450199204"/><rect x="758.3665338645419" y="598.4008404342244" height="0.4552352048558532" width="48.40637450199204"/><rect x="597.0119521912351" y="596.090643414938" height="2.2133857136012693" width="48.40637450199204"/><rect x="1242.4302788844623" y="599.7542128293455" height="0.06703286472395575" width="48.40637450199204"/><rect x="1296.2151394422312" y="599.4794045118275" height="0" width="48.40637450199204"/><rect x="328.08764940239047" y="599.5261958997722" height="0.47380410022776687" width="48.40637450199204"/><rect x="5.378486055776875" y="598.9932396284228" height="0.8316716113029088" width="48.40637450199204"/><rect x="919.7211155378487" y="599.008450001559" height="0" width="48.40637450199204"/><rect x="812.1513944223108" y="598.9960864386592" height="0" width="48.40637450199204"/><rect x="543.2270916334662" y="597.9704564673708" height="0.39943143993230024" width="48.40637450199204"/><rect x="1027.2908366533866" y="599.0829777749475" height="0" width="48.40637450199204"/><rect x="489.44223107569724" y="595.1418154268669" height="0" width="48.40637450199204"/><rect x="435.6573705179283" y="599.3096470868297" height="0.6903529131702726" width="48.40637450199204"/><rect x="274.30278884462155" y="598.2965713037781" height="0.7113218731475399" width="48.40637450199204"/><rect x="59.163346613545805" y="598.3443119102724" height="0.6409115186042982" width="48.40637450199204"/><rect x="220.5179282868526" y="598.4106769904743" height="0.6571239366307964" width="48.40637450199204"/><rect x="973.5059760956176" y="594.8243992606284" height="0" width="48.40637450199204"/><rect x="1188.6454183266933" y="599.8175380672068" height="0.18246193279321687" width="48.40637450199204"/><rect x="704.5816733067729" y="596.8270042194093" height="0.47257383966234556" width="48.40637450199204"/><rect x="381.8725099601594" y="595.091421163217" height="0.5096338682998294" width="48.40637450199204"/><rect x="1134.8605577689243" y="596.3482918120587" height="3.06743487787071" width="48.40637450199204"/><rect x="1081.0756972111556" y="600" height="0" width="48.40637450199204"/><rect x="865.9362549800798" y="589.7807456270783" height="0" width="48.40637450199204"/><rect x="166.73306772908367" y="597.0501999111506" height="2.363394047090196" width="48.40637450199204"/><rect x="112.94820717131473" y="597.0777300153803" height="1.1831052569310714" width="48.40637450199204"/></g><g class="layer" style="fill: rgb(102, 102, 102);"><rect x="650.7968127490041" y="599.6043883587612" height="0" width="48.40637450199204"/><rect x="758.3665338645419" y="599.0778568927279" height="0.3735263219330136" width="48.40637450199204"/><rect x="597.0119521912351" y="598.3040291285392" height="0.7761222632108229" width="48.40637450199204"/><rect x="1242.4302788844623" y="599.9441392793967" height="0" width="48.40637450199204"/><rect x="1296.2151394422312" y="600" height="0" width="48.40637450199204"/><rect x="328.08764940239047" y="600" height="0" width="48.40637450199204"/><rect x="5.378486055776875" y="599.8249112397257" height="0" width="48.40637450199204"/><rect x="919.7211155378487" y="599.008450001559" height="0.6735056593183799" width="48.40637450199204"/><rect x="812.1513944223108" y="599.0471328909307" height="0.6636038795304557" width="48.40637450199204"/><rect x="543.2270916334662" y="598.3698879073031" height="0.8960218787672147" width="48.40637450199204"/><rect x="1027.2908366533866" y="599.7707444437368" height="0" width="48.40637450199204"/><rect x="489.44223107569724" y="599.0198399545433" height="0.8523130830058108" width="48.40637450199204"/><rect x="435.6573705179283" y="600" height="0" width="48.40637450199204"/><rect x="274.30278884462155" y="599.6256200667644" height="0" width="48.40637450199204"/><rect x="59.163346613545805" y="599.6617411429589" height="0" width="48.40637450199204"/><rect x="220.5179282868526" y="599.5109775355305" height="0" width="48.40637450199204"/><rect x="973.5059760956176" y="599.6611213801602" height="0" width="48.40637450199204"/><rect x="1188.6454183266933" y="600" height="0" width="48.40637450199204"/><rect x="704.5816733067729" y="597.9409282700421" height="0" width="48.40637450199204"/><rect x="381.8725099601594" y="597.4786534936743" height="0" width="48.40637450199204"/><rect x="1134.8605577689243" y="599.4157266899294" height="0" width="48.40637450199204"/><rect x="1081.0756972111556" y="600" height="0" width="48.40637450199204"/><rect x="865.9362549800798" y="599.5295898780719" height="0" width="48.40637450199204"/><rect x="166.73306772908367" y="599.7156819191471" height="0" width="48.40637450199204"/><rect x="112.94820717131473" y="599.3729542138266" height="0" width="48.40637450199204"/></g><g class="layer" style="fill: rgb(190, 174, 212);"><rect x="650.7968127490041" y="599.9230755142036" height="0" width="48.40637450199204"/><rect x="758.3665338645419" y="599.7315279561107" height="0.05836348780201206" width="48.40637450199204"/><rect x="597.0119521912351" y="599.7700378479375" height="0" width="48.40637450199204"/><rect x="1242.4302788844623" y="600" height="0" width="48.40637450199204"/><rect x="1296.2151394422312" y="600" height="0" width="48.40637450199204"/><rect x="328.08764940239047" y="600" height="0" width="48.40637450199204"/><rect x="5.378486055776875" y="599.8249112397257" height="0.17508876027432052" width="48.40637450199204"/><rect x="919.7211155378487" y="600" height="0" width="48.40637450199204"/><rect x="812.1513944223108" y="600" height="0" width="48.40637450199204"/><rect x="543.2270916334662" y="599.6869321146477" height="0" width="48.40637450199204"/><rect x="1027.2908366533866" y="600" height="0" width="48.40637450199204"/><rect x="489.44223107569724" y="599.8721530375491" height="0.04261565415038149" width="48.40637450199204"/><rect x="435.6573705179283" y="600" height="0" width="48.40637450199204"/><rect x="274.30278884462155" y="599.7004960534115" height="0" width="48.40637450199204"/><rect x="59.163346613545805" y="599.6617411429589" height="0" width="48.40637450199204"/><rect x="220.5179282868526" y="599.6332331516479" height="0" width="48.40637450199204"/><rect x="973.5059760956176" y="599.6611213801602" height="0.3388786198397611" width="48.40637450199204"/><rect x="1188.6454183266933" y="600" height="0" width="48.40637450199204"/><rect x="704.5816733067729" y="597.9409282700421" height="1.7890295358649837" width="48.40637450199204"/><rect x="381.8725099601594" y="597.4786534936743" height="1.5825472752469523" width="48.40637450199204"/><rect x="1134.8605577689243" y="599.4157266899294" height="0" width="48.40637450199204"/><rect x="1081.0756972111556" y="600" height="0" width="48.40637450199204"/><rect x="865.9362549800798" y="599.6106950715077" height="0.1622103868718341" width="48.40637450199204"/><rect x="166.73306772908367" y="599.8045313194136" height="0" width="48.40637450199204"/><rect x="112.94820717131473" y="599.4439405292425" height="0.09464842055444933" width="48.40637450199204"/></g><g class="layer" style="fill: rgb(191, 91, 23);"><rect x="650.7968127490041" y="599.4065825381417" height="0.1978058206194646" width="48.40637450199204"/><rect x="758.3665338645419" y="598.9261118244426" height="0.1517450682853223" width="48.40637450199204"/><rect x="597.0119521912351" y="598.3040291285392" height="0" width="48.40637450199204"/><rect x="1242.4302788844623" y="599.9441392793967" height="0" width="48.40637450199204"/><rect x="1296.2151394422312" y="600" height="0" width="48.40637450199204"/><rect x="328.08764940239047" y="600" height="0" width="48.40637450199204"/><rect x="5.378486055776875" y="599.8249112397257" height="0" width="48.40637450199204"/><rect x="919.7211155378487" y="599.008450001559" height="0" width="48.40637450199204"/><rect x="812.1513944223108" y="598.9960864386592" height="0.05104645227152105" width="48.40637450199204"/><rect x="543.2270916334662" y="598.3698879073031" height="0" width="48.40637450199204"/><rect x="1027.2908366533866" y="599.7707444437368" height="0" width="48.40637450199204"/><rect x="489.44223107569724" y="598.9488138642928" height="0.07102609025048423" width="48.40637450199204"/><rect x="435.6573705179283" y="600" height="0" width="48.40637450199204"/><rect x="274.30278884462155" y="599.0078931769257" height="0.6177268898387638" width="48.40637450199204"/><rect x="59.163346613545805" y="598.9852234288767" height="0.6765177140822516" width="48.40637450199204"/><rect x="220.5179282868526" y="599.067800927105" height="0.44317660842546047" width="48.40637450199204"/><rect x="973.5059760956176" y="599.4762784966113" height="0.18484288354898126" width="48.40637450199204"/><rect x="1188.6454183266933" y="600" height="0" width="48.40637450199204"/><rect x="704.5816733067729" y="597.4683544303797" height="0.47257383966245925" width="48.40637450199204"/><rect x="381.8725099601594" y="595.9497518887747" height="1.5289016048996018" width="48.40637450199204"/><rect x="1134.8605577689243" y="599.4157266899294" height="0" width="48.40637450199204"/><rect x="1081.0756972111556" y="600" height="0" width="48.40637450199204"/><rect x="865.9362549800798" y="599.3024953364513" height="0.227094541620545" width="48.40637450199204"/><rect x="166.73306772908367" y="599.5912927587739" height="0.12438916037319814" width="48.40637450199204"/><rect x="112.94820717131473" y="598.8168947430689" height="0.5560594707576456" width="48.40637450199204"/></g><g class="layer" style="fill: rgb(127, 201, 127);"><rect x="650.7968127490041" y="599.6043883587612" height="0.318687155442376" width="48.40637450199204"/><rect x="758.3665338645419" y="599.451383214661" height="0.28014474144970336" width="48.40637450199204"/><rect x="597.0119521912351" y="599.0801513917501" height="0.6898864561874234" width="48.40637450199204"/><rect x="1242.4302788844623" y="599.9441392793967" height="0.055860720603277514" width="48.40637450199204"/><rect x="1296.2151394422312" y="600" height="0" width="48.40637450199204"/><rect x="328.08764940239047" y="600" height="0" width="48.40637450199204"/><rect x="5.378486055776875" y="599.8249112397257" height="0" width="48.40637450199204"/><rect x="919.7211155378487" y="599.6819556608774" height="0.31804433912259356" width="48.40637450199204"/><rect x="812.1513944223108" y="599.7107367704612" height="0.28926322953884664" width="48.40637450199204"/><rect x="543.2270916334662" y="599.2659097860703" height="0.4210223285773509" width="48.40637450199204"/><rect x="1027.2908366533866" y="599.7707444437368" height="0.22925555626318328" width="48.40637450199204"/><rect x="489.44223107569724" y="599.8721530375491" height="0" width="48.40637450199204"/><rect x="435.6573705179283" y="600" height="0" width="48.40637450199204"/><rect x="274.30278884462155" y="599.6256200667644" height="0.07487598664704365" width="48.40637450199204"/><rect x="59.163346613545805" y="599.6617411429589" height="0" width="48.40637450199204"/><rect x="220.5179282868526" y="599.5109775355305" height="0.12225561611739977" width="48.40637450199204"/><rect x="973.5059760956176" y="599.6611213801602" height="0" width="48.40637450199204"/><rect x="1188.6454183266933" y="600" height="0" width="48.40637450199204"/><rect x="704.5816733067729" y="597.9409282700421" height="0" width="48.40637450199204"/><rect x="381.8725099601594" y="597.4786534936743" height="0" width="48.40637450199204"/><rect x="1134.8605577689243" y="599.4157266899294" height="0" width="48.40637450199204"/><rect x="1081.0756972111556" y="600" height="0" width="48.40637450199204"/><rect x="865.9362549800798" y="599.5295898780719" height="0.0811051934358602" width="48.40637450199204"/><rect x="166.73306772908367" y="599.7156819191471" height="0.08884940026655386" width="48.40637450199204"/><rect x="112.94820717131473" y="599.3729542138266" height="0.07098631541589384" width="48.40637450199204"/></g><g class="layer" style="fill: rgb(253, 192, 134);"><rect x="650.7968127490041" y="599.9230755142036" height="0.07692448579643951" width="48.40637450199204"/><rect x="758.3665338645419" y="599.7898914439127" height="0.1867631609665068" width="48.40637450199204"/><rect x="597.0119521912351" y="599.7700378479375" height="0.22996215206251236" width="48.40637450199204"/><rect x="1242.4302788844623" y="600" height="0" width="48.40637450199204"/><rect x="1296.2151394422312" y="600" height="0" width="48.40637450199204"/><rect x="328.08764940239047" y="600" height="0" width="48.40637450199204"/><rect x="5.378486055776875" y="600" height="0" width="48.40637450199204"/><rect x="919.7211155378487" y="600" height="0" width="48.40637450199204"/><rect x="812.1513944223108" y="600" height="0" width="48.40637450199204"/><rect x="543.2270916334662" y="599.6869321146477" height="0.15113622051489983" width="48.40637450199204"/><rect x="1027.2908366533866" y="600" height="0" width="48.40637450199204"/><rect x="489.44223107569724" y="599.9147686916995" height="0" width="48.40637450199204"/><rect x="435.6573705179283" y="600" height="0" width="48.40637450199204"/><rect x="274.30278884462155" y="599.7004960534115" height="0" width="48.40637450199204"/><rect x="59.163346613545805" y="599.6617411429589" height="0" width="48.40637450199204"/><rect x="220.5179282868526" y="599.6332331516479" height="0" width="48.40637450199204"/><rect x="973.5059760956176" y="600" height="0" width="48.40637450199204"/><rect x="1188.6454183266933" y="600" height="0" width="48.40637450199204"/><rect x="704.5816733067729" y="599.7299578059071" height="0.13502109704643317" width="48.40637450199204"/><rect x="381.8725099601594" y="599.0612007689213" height="0.42916536277891737" width="48.40637450199204"/><rect x="1134.8605577689243" y="599.4157266899294" height="0" width="48.40637450199204"/><rect x="1081.0756972111556" y="600" height="0" width="48.40637450199204"/><rect x="865.9362549800798" y="599.7729054583796" height="0" width="48.40637450199204"/><rect x="166.73306772908367" y="599.8045313194136" height="0" width="48.40637450199204"/><rect x="112.94820717131473" y="599.5385889497969" height="0" width="48.40637450199204"/></g><g class="layer" style="fill: rgb(102, 102, 102);"><rect x="650.7968127490041" y="600" height="0" width="48.40637450199204"/><rect x="758.3665338645419" y="600" height="0" width="48.40637450199204"/><rect x="597.0119521912351" y="600" height="0" width="48.40637450199204"/><rect x="1242.4302788844623" y="600" height="0" width="48.40637450199204"/><rect x="1296.2151394422312" y="600" height="0" width="48.40637450199204"/><rect x="328.08764940239047" y="600" height="0" width="48.40637450199204"/><rect x="5.378486055776875" y="600" height="0" width="48.40637450199204"/><rect x="919.7211155378487" y="600" height="0" width="48.40637450199204"/><rect x="812.1513944223108" y="600" height="0" width="48.40637450199204"/><rect x="543.2270916334662" y="600" height="0" width="48.40637450199204"/><rect x="1027.2908366533866" y="600" height="0" width="48.40637450199204"/><rect x="489.44223107569724" y="599.9147686916995" height="0" width="48.40637450199204"/><rect x="435.6573705179283" y="600" height="0" width="48.40637450199204"/><rect x="274.30278884462155" y="600" height="0" width="48.40637450199204"/><rect x="59.163346613545805" y="600" height="0" width="48.40637450199204"/><rect x="220.5179282868526" y="600" height="0" width="48.40637450199204"/><rect x="973.5059760956176" y="600" height="0" width="48.40637450199204"/><rect x="1188.6454183266933" y="600" height="0" width="48.40637450199204"/><rect x="704.5816733067729" y="599.8649789029536" height="0" width="48.40637450199204"/><rect x="381.8725099601594" y="599.8658858241316" height="0" width="48.40637450199204"/><rect x="1134.8605577689243" y="600" height="0" width="48.40637450199204"/><rect x="1081.0756972111556" y="600" height="0" width="48.40637450199204"/><rect x="865.9362549800798" y="599.7729054583796" height="0" width="48.40637450199204"/><rect x="166.73306772908367" y="599.9644602398934" height="0" width="48.40637450199204"/><rect x="112.94820717131473" y="599.7042236857673" height="0.18929684110889866" width="48.40637450199204"/></g><g class="layer" style="fill: rgb(255, 255, 153);"><rect x="650.7968127490041" y="600" height="0" width="48.40637450199204"/><rect x="758.3665338645419" y="599.9766546048792" height="0" width="48.40637450199204"/><rect x="597.0119521912351" y="600" height="0" width="48.40637450199204"/><rect x="1242.4302788844623" y="600" height="0" width="48.40637450199204"/><rect x="1296.2151394422312" y="600" height="0" width="48.40637450199204"/><rect x="328.08764940239047" y="600" height="0" width="48.40637450199204"/><rect x="5.378486055776875" y="600" height="0" width="48.40637450199204"/><rect x="919.7211155378487" y="600" height="0" width="48.40637450199204"/><rect x="812.1513944223108" y="600" height="0" width="48.40637450199204"/><rect x="543.2270916334662" y="599.8380683351626" height="0.06477266593492459" width="48.40637450199204"/><rect x="1027.2908366533866" y="600" height="0" width="48.40637450199204"/><rect x="489.44223107569724" y="599.9147686916995" height="0" width="48.40637450199204"/><rect x="435.6573705179283" y="600" height="0" width="48.40637450199204"/><rect x="274.30278884462155" y="599.7004960534115" height="0.2246279599413583" width="48.40637450199204"/><rect x="59.163346613545805" y="599.6617411429589" height="0.19583407512902795" width="48.40637450199204"/><rect x="220.5179282868526" y="599.6332331516479" height="0.22922928022001088" width="48.40637450199204"/><rect x="973.5059760956176" y="600" height="0" width="48.40637450199204"/><rect x="1188.6454183266933" y="600" height="0" width="48.40637450199204"/><rect x="704.5816733067729" y="599.8649789029536" height="0" width="48.40637450199204"/><rect x="381.8725099601594" y="599.4903661317002" height="0" width="48.40637450199204"/><rect x="1134.8605577689243" y="599.4157266899294" height="0.5842733100705573" width="48.40637450199204"/><rect x="1081.0756972111556" y="600" height="0" width="48.40637450199204"/><rect x="865.9362549800798" y="599.7729054583796" height="0" width="48.40637450199204"/><rect x="166.73306772908367" y="599.8045313194136" height="0" width="48.40637450199204"/><rect x="112.94820717131473" y="599.5385889497969" height="0" width="48.40637450199204"/></g><g class="layer" style="fill: rgb(191, 91, 23);"><rect x="650.7968127490041" y="600" height="0" width="48.40637450199204"/><rect x="758.3665338645419" y="599.9766546048792" height="0.02334539512082756" width="48.40637450199204"/><rect x="597.0119521912351" y="600" height="0" width="48.40637450199204"/><rect x="1242.4302788844623" y="600" height="0" width="48.40637450199204"/><rect x="1296.2151394422312" y="600" height="0" width="48.40637450199204"/><rect x="328.08764940239047" y="600" height="0" width="48.40637450199204"/><rect x="5.378486055776875" y="600" height="0" width="48.40637450199204"/><rect x="919.7211155378487" y="600" height="0" width="48.40637450199204"/><rect x="812.1513944223108" y="600" height="0" width="48.40637450199204"/><rect x="543.2270916334662" y="599.9460227783875" height="0.05397722161251295" width="48.40637450199204"/><rect x="1027.2908366533866" y="600" height="0" width="48.40637450199204"/><rect x="489.44223107569724" y="599.9147686916995" height="0" width="48.40637450199204"/><rect x="435.6573705179283" y="600" height="0" width="48.40637450199204"/><rect x="274.30278884462155" y="600" height="0" width="48.40637450199204"/><rect x="59.163346613545805" y="600" height="0" width="48.40637450199204"/><rect x="220.5179282868526" y="600" height="0" width="48.40637450199204"/><rect x="973.5059760956176" y="600" height="0" width="48.40637450199204"/><rect x="1188.6454183266933" y="600" height="0" width="48.40637450199204"/><rect x="704.5816733067729" y="599.8649789029536" height="0" width="48.40637450199204"/><rect x="381.8725099601594" y="599.4903661317002" height="0.3755196924314532" width="48.40637450199204"/><rect x="1134.8605577689243" y="600" height="0" width="48.40637450199204"/><rect x="1081.0756972111556" y="600" height="0" width="48.40637450199204"/><rect x="865.9362549800798" y="599.7729054583796" height="0" width="48.40637450199204"/><rect x="166.73306772908367" y="599.9644602398934" height="0" width="48.40637450199204"/><rect x="112.94820717131473" y="599.7042236857673" height="0" width="48.40637450199204"/></g><g class="layer" style="fill: rgb(240, 2, 127);"><rect x="650.7968127490041" y="600" height="0" width="48.40637450199204"/><rect x="758.3665338645419" y="599.9766546048792" height="0" width="48.40637450199204"/><rect x="597.0119521912351" y="600" height="0" width="48.40637450199204"/><rect x="1242.4302788844623" y="600" height="0" width="48.40637450199204"/><rect x="1296.2151394422312" y="600" height="0" width="48.40637450199204"/><rect x="328.08764940239047" y="600" height="0" width="48.40637450199204"/><rect x="5.378486055776875" y="600" height="0" width="48.40637450199204"/><rect x="919.7211155378487" y="600" height="0" width="48.40637450199204"/><rect x="812.1513944223108" y="600" height="0" width="48.40637450199204"/><rect x="543.2270916334662" y="599.9460227783875" height="0" width="48.40637450199204"/><rect x="1027.2908366533866" y="600" height="0" width="48.40637450199204"/><rect x="489.44223107569724" y="599.9147686916995" height="0" width="48.40637450199204"/><rect x="435.6573705179283" y="600" height="0" width="48.40637450199204"/><rect x="274.30278884462155" y="600" height="0" width="48.40637450199204"/><rect x="59.163346613545805" y="600" height="0" width="48.40637450199204"/><rect x="220.5179282868526" y="600" height="0" width="48.40637450199204"/><rect x="973.5059760956176" y="600" height="0" width="48.40637450199204"/><rect x="1188.6454183266933" y="600" height="0" width="48.40637450199204"/><rect x="704.5816733067729" y="599.8649789029536" height="0" width="48.40637450199204"/><rect x="381.8725099601594" y="599.4903661317002" height="0" width="48.40637450199204"/><rect x="1134.8605577689243" y="600" height="0" width="48.40637450199204"/><rect x="1081.0756972111556" y="600" height="0" width="48.40637450199204"/><rect x="865.9362549800798" y="599.7729054583796" height="0" width="48.40637450199204"/><rect x="166.73306772908367" y="599.8045313194136" height="0.15992892047972873" width="48.40637450199204"/><rect x="112.94820717131473" y="599.5385889497969" height="0.16563473597034317" width="48.40637450199204"/></g><g class="layer" style="fill: rgb(56, 108, 176);"><rect x="650.7968127490041" y="600" height="0" width="48.40637450199204"/><rect x="758.3665338645419" y="599.9766546048792" height="0" width="48.40637450199204"/><rect x="597.0119521912351" y="600" height="0" width="48.40637450199204"/><rect x="1242.4302788844623" y="600" height="0" width="48.40637450199204"/><rect x="1296.2151394422312" y="600" height="0" width="48.40637450199204"/><rect x="328.08764940239047" y="600" height="0" width="48.40637450199204"/><rect x="5.378486055776875" y="600" height="0" width="48.40637450199204"/><rect x="919.7211155378487" y="600" height="0" width="48.40637450199204"/><rect x="812.1513944223108" y="600" height="0" width="48.40637450199204"/><rect x="543.2270916334662" y="599.9028410010975" height="0.04318177728998762" width="48.40637450199204"/><rect x="1027.2908366533866" y="600" height="0" width="48.40637450199204"/><rect x="489.44223107569724" y="599.9147686916995" height="0" width="48.40637450199204"/><rect x="435.6573705179283" y="600" height="0" width="48.40637450199204"/><rect x="274.30278884462155" y="599.9251240133528" height="0.07487598664715733" width="48.40637450199204"/><rect x="59.163346613545805" y="599.857575218088" height="0.142424781912041" width="48.40637450199204"/><rect x="220.5179282868526" y="599.8624624318679" height="0.13753756813207474" width="48.40637450199204"/><rect x="973.5059760956176" y="600" height="0" width="48.40637450199204"/><rect x="1188.6454183266933" y="600" height="0" width="48.40637450199204"/><rect x="704.5816733067729" y="599.8649789029536" height="0" width="48.40637450199204"/><rect x="381.8725099601594" y="599.4903661317002" height="0" width="48.40637450199204"/><rect x="1134.8605577689243" y="600" height="0" width="48.40637450199204"/><rect x="1081.0756972111556" y="600" height="0" width="48.40637450199204"/><rect x="865.9362549800798" y="599.7729054583796" height="0" width="48.40637450199204"/><rect x="166.73306772908367" y="599.8045313194136" height="0" width="48.40637450199204"/><rect x="112.94820717131473" y="599.5385889497969" height="0" width="48.40637450199204"/></g><g class="layer" style="fill: rgb(190, 174, 212);"><rect x="650.7968127490041" y="600" height="0" width="48.40637450199204"/><rect x="758.3665338645419" y="600" height="0" width="48.40637450199204"/><rect x="597.0119521912351" y="600" height="0" width="48.40637450199204"/><rect x="1242.4302788844623" y="600" height="0" width="48.40637450199204"/><rect x="1296.2151394422312" y="600" height="0" width="48.40637450199204"/><rect x="328.08764940239047" y="600" height="0" width="48.40637450199204"/><rect x="5.378486055776875" y="600" height="0" width="48.40637450199204"/><rect x="919.7211155378487" y="600" height="0" width="48.40637450199204"/><rect x="812.1513944223108" y="600" height="0" width="48.40637450199204"/><rect x="543.2270916334662" y="600" height="0" width="48.40637450199204"/><rect x="1027.2908366533866" y="600" height="0" width="48.40637450199204"/><rect x="489.44223107569724" y="599.9147686916995" height="0" width="48.40637450199204"/><rect x="435.6573705179283" y="600" height="0" width="48.40637450199204"/><rect x="274.30278884462155" y="600" height="0" width="48.40637450199204"/><rect x="59.163346613545805" y="600" height="0" width="48.40637450199204"/><rect x="220.5179282868526" y="600" height="0" width="48.40637450199204"/><rect x="973.5059760956176" y="600" height="0" width="48.40637450199204"/><rect x="1188.6454183266933" y="600" height="0" width="48.40637450199204"/><rect x="704.5816733067729" y="599.8649789029536" height="0" width="48.40637450199204"/><rect x="381.8725099601594" y="599.8658858241316" height="0" width="48.40637450199204"/><rect x="1134.8605577689243" y="600" height="0" width="48.40637450199204"/><rect x="1081.0756972111556" y="600" height="0" width="48.40637450199204"/><rect x="865.9362549800798" y="599.8540106518154" height="0.1459893481845711" width="48.40637450199204"/><rect x="166.73306772908367" y="599.9644602398934" height="0" width="48.40637450199204"/><rect x="112.94820717131473" y="599.9763378948613" height="0" width="48.40637450199204"/></g><g class="layer" style="fill: rgb(127, 201, 127);"><rect x="650.7968127490041" y="600" height="0" width="48.40637450199204"/><rect x="758.3665338645419" y="600" height="0" width="48.40637450199204"/><rect x="597.0119521912351" y="600" height="0" width="48.40637450199204"/><rect x="1242.4302788844623" y="600" height="0" width="48.40637450199204"/><rect x="1296.2151394422312" y="600" height="0" width="48.40637450199204"/><rect x="328.08764940239047" y="600" height="0" width="48.40637450199204"/><rect x="5.378486055776875" y="600" height="0" width="48.40637450199204"/><rect x="919.7211155378487" y="600" height="0" width="48.40637450199204"/><rect x="812.1513944223108" y="600" height="0" width="48.40637450199204"/><rect x="543.2270916334662" y="600" height="0" width="48.40637450199204"/><rect x="1027.2908366533866" y="600" height="0" width="48.40637450199204"/><rect x="489.44223107569724" y="599.9147686916995" height="0" width="48.40637450199204"/><rect x="435.6573705179283" y="600" height="0" width="48.40637450199204"/><rect x="274.30278884462155" y="600" height="0" width="48.40637450199204"/><rect x="59.163346613545805" y="600" height="0" width="48.40637450199204"/><rect x="220.5179282868526" y="600" height="0" width="48.40637450199204"/><rect x="973.5059760956176" y="600" height="0" width="48.40637450199204"/><rect x="1188.6454183266933" y="600" height="0" width="48.40637450199204"/><rect x="704.5816733067729" y="599.8649789029536" height="0" width="48.40637450199204"/><rect x="381.8725099601594" y="599.8658858241316" height="0" width="48.40637450199204"/><rect x="1134.8605577689243" y="600" height="0" width="48.40637450199204"/><rect x="1081.0756972111556" y="600" height="0" width="48.40637450199204"/><rect x="865.9362549800798" y="599.7729054583796" height="0.0811051934358602" width="48.40637450199204"/><rect x="166.73306772908367" y="599.9644602398934" height="0" width="48.40637450199204"/><rect x="112.94820717131473" y="599.8935205268762" height="0.08281736798517159" width="48.40637450199204"/></g><g class="layer" style="fill: rgb(253, 192, 134);"><rect x="650.7968127490041" y="600" height="0" width="48.40637450199204"/><rect x="758.3665338645419" y="600" height="0" width="48.40637450199204"/><rect x="597.0119521912351" y="600" height="0" width="48.40637450199204"/><rect x="1242.4302788844623" y="600" height="0" width="48.40637450199204"/><rect x="1296.2151394422312" y="600" height="0" width="48.40637450199204"/><rect x="328.08764940239047" y="600" height="0" width="48.40637450199204"/><rect x="5.378486055776875" y="600" height="0" width="48.40637450199204"/><rect x="919.7211155378487" y="600" height="0" width="48.40637450199204"/><rect x="812.1513944223108" y="600" height="0" width="48.40637450199204"/><rect x="543.2270916334662" y="600" height="0" width="48.40637450199204"/><rect x="1027.2908366533866" y="600" height="0" width="48.40637450199204"/><rect x="489.44223107569724" y="599.9147686916995" height="0.0852313083005356" width="48.40637450199204"/><rect x="435.6573705179283" y="600" height="0" width="48.40637450199204"/><rect x="274.30278884462155" y="600" height="0" width="48.40637450199204"/><rect x="59.163346613545805" y="600" height="0" width="48.40637450199204"/><rect x="220.5179282868526" y="600" height="0" width="48.40637450199204"/><rect x="973.5059760956176" y="600" height="0" width="48.40637450199204"/><rect x="1188.6454183266933" y="600" height="0" width="48.40637450199204"/><rect x="704.5816733067729" y="599.8649789029536" height="0" width="48.40637450199204"/><rect x="381.8725099601594" y="599.8658858241316" height="0" width="48.40637450199204"/><rect x="1134.8605577689243" y="600" height="0" width="48.40637450199204"/><rect x="1081.0756972111556" y="600" height="0" width="48.40637450199204"/><rect x="865.9362549800798" y="600" height="0" width="48.40637450199204"/><rect x="166.73306772908367" y="599.9644602398934" height="0" width="48.40637450199204"/><rect x="112.94820717131473" y="599.9763378948613" height="0" width="48.40637450199204"/></g><g class="layer" style="fill: rgb(255, 255, 153);"><rect x="650.7968127490041" y="600" height="0" width="48.40637450199204"/><rect x="758.3665338645419" y="600" height="0" width="48.40637450199204"/><rect x="597.0119521912351" y="600" height="0" width="48.40637450199204"/><rect x="1242.4302788844623" y="600" height="0" width="48.40637450199204"/><rect x="1296.2151394422312" y="600" height="0" width="48.40637450199204"/><rect x="328.08764940239047" y="600" height="0" width="48.40637450199204"/><rect x="5.378486055776875" y="600" height="0" width="48.40637450199204"/><rect x="919.7211155378487" y="600" height="0" width="48.40637450199204"/><rect x="812.1513944223108" y="600" height="0" width="48.40637450199204"/><rect x="543.2270916334662" y="600" height="0" width="48.40637450199204"/><rect x="1027.2908366533866" y="600" height="0" width="48.40637450199204"/><rect x="489.44223107569724" y="600" height="0" width="48.40637450199204"/><rect x="435.6573705179283" y="600" height="0" width="48.40637450199204"/><rect x="274.30278884462155" y="600" height="0" width="48.40637450199204"/><rect x="59.163346613545805" y="600" height="0" width="48.40637450199204"/><rect x="220.5179282868526" y="600" height="0" width="48.40637450199204"/><rect x="973.5059760956176" y="600" height="0" width="48.40637450199204"/><rect x="1188.6454183266933" y="600" height="0" width="48.40637450199204"/><rect x="704.5816733067729" y="599.8649789029536" height="0" width="48.40637450199204"/><rect x="381.8725099601594" y="599.8658858241316" height="0.13411417586837615" width="48.40637450199204"/><rect x="1134.8605577689243" y="600" height="0" width="48.40637450199204"/><rect x="1081.0756972111556" y="600" height="0" width="48.40637450199204"/><rect x="865.9362549800798" y="600" height="0" width="48.40637450199204"/><rect x="166.73306772908367" y="599.9644602398934" height="0" width="48.40637450199204"/><rect x="112.94820717131473" y="599.9763378948613" height="0" width="48.40637450199204"/></g><g class="layer" style="fill: rgb(56, 108, 176);"><rect x="650.7968127490041" y="600" height="0" width="48.40637450199204"/><rect x="758.3665338645419" y="600" height="0" width="48.40637450199204"/><rect x="597.0119521912351" y="600" height="0" width="48.40637450199204"/><rect x="1242.4302788844623" y="600" height="0" width="48.40637450199204"/><rect x="1296.2151394422312" y="600" height="0" width="48.40637450199204"/><rect x="328.08764940239047" y="600" height="0" width="48.40637450199204"/><rect x="5.378486055776875" y="600" height="0" width="48.40637450199204"/><rect x="919.7211155378487" y="600" height="0" width="48.40637450199204"/><rect x="812.1513944223108" y="600" height="0" width="48.40637450199204"/><rect x="543.2270916334662" y="600" height="0" width="48.40637450199204"/><rect x="1027.2908366533866" y="600" height="0" width="48.40637450199204"/><rect x="489.44223107569724" y="600" height="0" width="48.40637450199204"/><rect x="435.6573705179283" y="600" height="0" width="48.40637450199204"/><rect x="274.30278884462155" y="600" height="0" width="48.40637450199204"/><rect x="59.163346613545805" y="600" height="0" width="48.40637450199204"/><rect x="220.5179282868526" y="600" height="0" width="48.40637450199204"/><rect x="973.5059760956176" y="600" height="0" width="48.40637450199204"/><rect x="1188.6454183266933" y="600" height="0" width="48.40637450199204"/><rect x="704.5816733067729" y="599.8649789029536" height="0.13502109704643317" width="48.40637450199204"/><rect x="381.8725099601594" y="600" height="0" width="48.40637450199204"/><rect x="1134.8605577689243" y="600" height="0" width="48.40637450199204"/><rect x="1081.0756972111556" y="600" height="0" width="48.40637450199204"/><rect x="865.9362549800798" y="600" height="0" width="48.40637450199204"/><rect x="166.73306772908367" y="599.9644602398934" height="0" width="48.40637450199204"/><rect x="112.94820717131473" y="599.9763378948613" height="0" width="48.40637450199204"/></g><g class="layer" style="fill: rgb(191, 91, 23);"><rect x="650.7968127490041" y="600" height="0" width="48.40637450199204"/><rect x="758.3665338645419" y="600" height="0" width="48.40637450199204"/><rect x="597.0119521912351" y="600" height="0" width="48.40637450199204"/><rect x="1242.4302788844623" y="600" height="0" width="48.40637450199204"/><rect x="1296.2151394422312" y="600" height="0" width="48.40637450199204"/><rect x="328.08764940239047" y="600" height="0" width="48.40637450199204"/><rect x="5.378486055776875" y="600" height="0" width="48.40637450199204"/><rect x="919.7211155378487" y="600" height="0" width="48.40637450199204"/><rect x="812.1513944223108" y="600" height="0" width="48.40637450199204"/><rect x="543.2270916334662" y="600" height="0" width="48.40637450199204"/><rect x="1027.2908366533866" y="600" height="0" width="48.40637450199204"/><rect x="489.44223107569724" y="600" height="0" width="48.40637450199204"/><rect x="435.6573705179283" y="600" height="0" width="48.40637450199204"/><rect x="274.30278884462155" y="600" height="0" width="48.40637450199204"/><rect x="59.163346613545805" y="600" height="0" width="48.40637450199204"/><rect x="220.5179282868526" y="600" height="0" width="48.40637450199204"/><rect x="973.5059760956176" y="600" height="0" width="48.40637450199204"/><rect x="1188.6454183266933" y="600" height="0" width="48.40637450199204"/><rect x="704.5816733067729" y="600" height="0" width="48.40637450199204"/><rect x="381.8725099601594" y="600" height="0" width="48.40637450199204"/><rect x="1134.8605577689243" y="600" height="0" width="48.40637450199204"/><rect x="1081.0756972111556" y="600" height="0" width="48.40637450199204"/><rect x="865.9362549800798" y="600" height="0" width="48.40637450199204"/><rect x="166.73306772908367" y="599.9644602398934" height="0.03553976010664428" width="48.40637450199204"/><rect x="112.94820717131473" y="600" height="0" width="48.40637450199204"/></g><g class="layer" style="fill: rgb(240, 2, 127);"><rect x="650.7968127490041" y="600" height="0" width="48.40637450199204"/><rect x="758.3665338645419" y="600" height="0" width="48.40637450199204"/><rect x="597.0119521912351" y="600" height="0" width="48.40637450199204"/><rect x="1242.4302788844623" y="600" height="0" width="48.40637450199204"/><rect x="1296.2151394422312" y="600" height="0" width="48.40637450199204"/><rect x="328.08764940239047" y="600" height="0" width="48.40637450199204"/><rect x="5.378486055776875" y="600" height="0" width="48.40637450199204"/><rect x="919.7211155378487" y="600" height="0" width="48.40637450199204"/><rect x="812.1513944223108" y="600" height="0" width="48.40637450199204"/><rect x="543.2270916334662" y="600" height="0" width="48.40637450199204"/><rect x="1027.2908366533866" y="600" height="0" width="48.40637450199204"/><rect x="489.44223107569724" y="600" height="0" width="48.40637450199204"/><rect x="435.6573705179283" y="600" height="0" width="48.40637450199204"/><rect x="274.30278884462155" y="600" height="0" width="48.40637450199204"/><rect x="59.163346613545805" y="600" height="0" width="48.40637450199204"/><rect x="220.5179282868526" y="600" height="0" width="48.40637450199204"/><rect x="973.5059760956176" y="600" height="0" width="48.40637450199204"/><rect x="1188.6454183266933" y="600" height="0" width="48.40637450199204"/><rect x="704.5816733067729" y="600" height="0" width="48.40637450199204"/><rect x="381.8725099601594" y="600" height="0" width="48.40637450199204"/><rect x="1134.8605577689243" y="600" height="0" width="48.40637450199204"/><rect x="1081.0756972111556" y="600" height="0" width="48.40637450199204"/><rect x="865.9362549800798" y="600" height="0" width="48.40637450199204"/><rect x="166.73306772908367" y="599.9644602398934" height="0" width="48.40637450199204"/><rect x="112.94820717131473" y="599.9763378948613" height="0.023662105138669176" width="48.40637450199204"/></g></g></svg>